<?xml version="1.0" standalone="no"?>
<!DOCTYPE svg PUBLIC "-//W3C//DTD SVG 1.1//EN" "http://www.w3.org/Graphics/SVG/1.1/DTD/svg11.dtd" >
<svg>
<metadata>
Created by FontForge 20090914 at Thu Feb 23 20:41:05 2012
 By root
(C) 1999 Ray Larabie - rlarabie@hotmail.com
</metadata>
<defs>
<font id="DeftoneStylus" horiz-adv-x="305" >
  <font-face 
    font-family="Deftone Stylus"
    font-weight="400"
    font-stretch="normal"
    units-per-em="1000"
    panose-1="0 0 4 0 0 0 0 0 0 0"
    ascent="800"
    descent="-200"
    x-height="371"
    cap-height="649"
    bbox="-91.0417 -247 1001 800"
    underline-thickness="20"
    underline-position="-123"
    unicode-range="U+0020-U+2026"
  />
<missing-glyph horiz-adv-x="500" 
d="M63 0v800h375v-800h-375zM125 63h250v675h-250v-675z" />
    <glyph glyph-name=".notdef" horiz-adv-x="500" 
d="M63 0v800h375v-800h-375zM125 63h250v675h-250v-675z" />
    <glyph glyph-name=".null" horiz-adv-x="0" 
 />
    <glyph glyph-name="nonmarkingreturn" horiz-adv-x="202" 
 />
    <glyph glyph-name="space" unicode=" " horiz-adv-x="202" 
 />
    <glyph glyph-name="glyph4" horiz-adv-x="402" 
 />
    <glyph glyph-name="glyph5" horiz-adv-x="378" 
 />
    <glyph glyph-name="glyph6" horiz-adv-x="495" 
 />
    <glyph glyph-name="glyph7" horiz-adv-x="586" 
 />
    <glyph glyph-name="glyph8" horiz-adv-x="331" 
 />
    <glyph glyph-name="exclam" unicode="!" horiz-adv-x="290" 
d="M296 56q-12 -26 -47 -42q-30 -14 -58 -14q-23 0 -40 9q-20 11 -20 30q0 8 4 17q12 27 47 43q30 13 59 13q22 0 40.5 -10t18.5 -28q0 -9 -4 -18zM331 143l-125 60l157 354q2 3 2 7q0 10 -11.5 19t-21.5 9h-14q-25 0 -25 28q0 29 27 29h84q121 0 121 -54q0 -17 -10 -38z
" />
    <glyph glyph-name="quotedbl" unicode="&#x22;" horiz-adv-x="253" 
d="M382 583q-11 -25 -42 -63.5t-40 -57.5q-13 -30 -39 -30q-18 0 -18 16q0 6 4 14q9 21 11.5 60t11.5 61q25 56 81 56q39 0 39 -27q0 -12 -8 -29zM503 583q-11 -25 -42 -63.5t-39 -57.5q-14 -30 -40 -30q-17 0 -17 16q0 6 3 14q10 21 12 60t12 61q25 56 80 56q39 0 39 -27
q0 -12 -8 -29z" />
    <glyph glyph-name="numbersign" unicode="#" horiz-adv-x="380" 
d="M375 395l31 70h-45l-31 -70h45zM478 326h-70l-31 -69h-63l30 69h-45l-31 -69h-59l31 69h-60l31 69h59l31 70h-59l31 69h59l29 64h59l-28 -64h45l29 64h63l-28 -64h70l-31 -69h-70l-31 -70h70z" />
    <glyph glyph-name="dollar" unicode="$" horiz-adv-x="349" 
d="M466 318q-50 -112 -165 -120l-26 -60h-72l26 59h-39q-41 0 -80.5 32t-39.5 72q0 15 6 29l59 36q-3 -11 -3 -21q0 -41 39 -67q36 -22 84 -22q58 0 78 43q5 13 5 24q0 31 -32 46q-55 25 -58 26q-29 19 -29 47q0 16 9 36q18 40 62 66q40 23 82 23h22l26 58h71l-25 -58h110
l-69 -55h-85q-39 0 -56 -38q-5 -11 -5 -20q0 -20 29 -30l57 -19q30 -14 30 -43q0 -18 -11 -44z" />
    <glyph glyph-name="percent" unicode="%" horiz-adv-x="333" 
d="M402 340l21 48q2 4 2 7q0 7 -7 7q-12 0 -18 -14l-21 -48q-2 -5 -2 -9q0 -8 6 -8q12 0 19 17zM344 551l21 47q2 5 2 8q0 6 -7 6q-12 0 -18 -14l-21 -47q-2 -5 -2 -10q0 -7 6 -7q12 0 19 17zM474 364q-31 -69 -77 -69h-53q-29 0 -29 24q0 16 13 45q31 70 81 70h46
q30 0 30 -29q0 -17 -11 -41zM568 644l-345 -349h-46l346 349h45zM416 575q-31 -69 -77 -69h-53q-29 0 -29 24q0 15 14 45q30 69 80 69h46q30 0 30 -28q0 -17 -11 -41z" />
    <glyph glyph-name="ampersand" unicode="&#x26;" horiz-adv-x="531" 
d="M313 59q2 26 9 41l93 208q-107 -32 -130 -85l-54 -120q-6 -15 -6 -27q0 -16 13 -16zM640 149q-27 -61 -109 -106q-76 -43 -138 -43q-21 0 -43 14q-33 -14 -62 -14h-76q-120 0 -120 78q0 36 24 91l19 43q23 52 79 92q52 37 109 50q-76 17 -76 84q0 23 11 48l30 68
q23 51 104 78q60 20 122 20q53 0 91 -15q49 -20 49 -59q0 -7 -2 -16l-148 -54l27 62q1 2 1 3q0 16 -38 16q-46 0 -63 -39l-37 -82q-4 -8 -4 -20q0 -28 15 -57t33 -30l31 69h146l-31 -69h40l-22 -48h-40l-95 -213q-1 -3 -1 -6q0 -6 10 -6q30 0 76.5 33t60.5 64z" />
    <glyph glyph-name="quotesingle" unicode="'" horiz-adv-x="229" 
d="M463 583q-39 -86 -151 -115l-8 20q47 8 61 39q-9 -2 -17 -2q-50 0 -50 38q0 9 4 20q12 26 47 42q30 14 59 14q22 0 40.5 -10t18.5 -29q0 -8 -4 -17z" />
    <glyph glyph-name="parenleft" unicode="(" horiz-adv-x="237" 
d="M217 11q-43 -11 -83 -11q-30 0 -47 17t-17 43q0 19 9 40l200 449q18 40 60.5 69.5t82.5 29.5q41 0 74 -10l-32 -72q-5 1 -10 1q-22 0 -30 -18l-200 -449q-1 -4 -1 -8q0 -10 15 -10q5 0 11 1z" />
    <glyph glyph-name="parenright" unicode=")" horiz-adv-x="237" 
d="M248 100q-18 -41 -60.5 -70.5t-82.5 -29.5q-41 0 -74 11l32 72q5 -1 9 -1q22 0 31 18l199 449q2 4 2 7q0 11 -16 11q-5 0 -10 -1l32 72q42 10 83 10q30 0 47 -16.5t17 -42.5q0 -20 -9 -40z" />
    <glyph glyph-name="asterisk" unicode="*" horiz-adv-x="449" 
d="M561 379q-35 -20 -89 -31.5t-77 -24.5q13 -11 54 -21t60 -31q14 -16 14 -34q0 -25 -24.5 -47t-50.5 -22q-22 0 -38.5 17.5t-21.5 53.5q-5 41 -13 55q-6 -20 -6 -45v-10.5v-10.5q0 -35 -13 -64q-30 -69 -83 -69q-32 0 -32 31q0 16 10 38q16 37 48 72q37 40 48 60
q-22 -14 -64 -56q-38 -37 -70 -54.5t-55 -17.5q-31 0 -31 30q0 39 62 73q38 21 88 31t72 21q-11 13 -54.5 24.5t-61.5 31.5q-15 15 -15 34q0 25 25 47t51 22q22 0 38.5 -17.5t22 -59t16.5 -56.5q9 23 9 57v7.5v6.5q0 40 14 70q30 68 83 68q32 0 32 -31q0 -16 -10 -37
q-16 -37 -51 -76q-37 -42 -48 -63q23 15 66 57q39 39 71.5 56.5t55.5 17.5q31 0 31 -30q0 -39 -63 -73z" />
    <glyph glyph-name="plus" unicode="+" horiz-adv-x="229" 
d="M347 313h-70l-33 -73h-48l32 73h-69l22 48h69l30 68h48l-30 -68h71z" />
    <glyph glyph-name="comma" unicode="," horiz-adv-x="229" 
d="M228 56q-38 -86 -150 -114l-9 19q48 9 62 39q-9 -2 -17 -2q-51 0 -51 39q0 9 5 19q12 27 47 43q30 13 58 13q23 0 41 -10t18 -28q0 -9 -4 -18z" />
    <glyph glyph-name="hyphen" unicode="-" horiz-adv-x="229" 
d="M351 313h-189l22 48h188z" />
    <glyph glyph-name="hyphen" unicode="&#x2010;" horiz-adv-x="229" 
d="M351 313h-189l22 48h188z" />
    <glyph glyph-name="period" unicode="." horiz-adv-x="229" 
d="M228 56q-12 -26 -47 -42q-29 -14 -58 -14q-23 0 -41 10t-18 29q0 8 4 17q12 27 47 43q30 13 58 13q23 0 41 -10t18 -28q0 -9 -4 -18z" />
    <glyph glyph-name="slash" unicode="/" horiz-adv-x="366" 
d="M590 567l-443 -486h-86l443 486h86z" />
    <glyph glyph-name="zero" unicode="0" horiz-adv-x="371" 
d="M250 85l90 200q3 8 3 13q0 13 -16 13q-25 0 -37 -26l-89 -200q-4 -9 -4 -17q0 -15 15 -15q24 0 38 32zM408 145q-65 -145 -163 -145h-114q-58 0 -58 55q0 35 24 90l39 88q24 54 67 93q50 45 101 45h98q63 0 63 -65q0 -33 -18 -73z" />
    <glyph glyph-name="one" unicode="1" horiz-adv-x="172" 
d="M149 0h-125l123 278q2 5 2 10q0 26 -25 26h-14q-24 0 -24 27q0 30 27 30h76q48 0 69 -7q28 -10 28 -37q0 -19 -13 -49z" />
    <glyph glyph-name="two" unicode="2" horiz-adv-x="331" 
d="M451 281q-22 -49 -82 -77l-105 -36q-57 -21 -72 -55l-23 -53h166l-26 -60h-292l54 122q25 57 80 81q46 12 94.5 26t64.5 49q4 9 4 16q0 22 -27 22h-85l-20 55h204q32 0 52.5 -15t20.5 -41q0 -15 -8 -34z" />
    <glyph glyph-name="three" unicode="3" horiz-adv-x="331" 
d="M366 89q-18 -40 -60.5 -64.5t-83.5 -24.5h-205l69 55h85q22 0 43.5 20.5t21.5 43.5q0 19 -27 22.5t-27 23.5q0 22 22 43t44.5 21t43.5 20t21 43q0 24 -26 24h-85l-20 55h204q32 0 52.5 -15t20.5 -41q0 -15 -7 -33q-30 -66 -132 -96q53 -21 53 -65q0 -15 -7 -32z" />
    <glyph glyph-name="four" unicode="4" horiz-adv-x="412" 
d="M451 145h-53l-65 -145h-126l64 145h-185l100 226q35 -5 61 -20q32 -20 32 -48q0 -12 -6 -25l-37 -84h57l9 19q25 58 70 79q32 14 95 14h2l-49 -112h53z" />
    <glyph glyph-name="five" unicode="5" horiz-adv-x="343" 
d="M379 122q-33 -74 -87 -101q-42 -21 -121 -21h-154l26 60h126q59 0 81 49q6 15 6 27q0 40 -81 40q-42 0 -85 -11l92 206h308l-69 -55h-132l-39 -87h26q57 0 82 -8q35 -12 35 -45q0 -22 -14 -54z" />
    <glyph glyph-name="six" unicode="6" horiz-adv-x="349" 
d="M280 126q5 12 5 21q0 29 -43 29q-15 0 -33 -3l-22 -49q-13 -29 -13 -43q0 -21 25 -21q22 0 48 22q23 21 33 44zM389 122q-34 -74 -88 -101q-41 -21 -121 -21h-68q-62 0 -62 49q0 20 11 46l76 170q21 47 61.5 76.5t87.5 29.5h173l-69 -55h-19q-12 1 -19 1q-79 0 -101 -49
l-15 -35q34 12 67 12q43 0 70 -20t27 -55q0 -22 -11 -48z" />
    <glyph glyph-name="seven" unicode="7" horiz-adv-x="336" 
d="M451 278l-286 -278h-141l285 278q11 10 11 20q0 16 -26 16h-103q-24 0 -24 27q0 30 27 30h205q82 0 82 -41q0 -23 -30 -52z" />
    <glyph glyph-name="eight" unicode="8" horiz-adv-x="349" 
d="M286 145q0 28 -37 28q-48 0 -69 -49q-8 -17 -8 -33q0 -31 27 -31q28 0 57.5 28t29.5 57zM335 273q3 8 3 14q0 25 -31 25q-35 0 -50 -33q-3 -9 -3 -15q0 -22 26 -22q41 0 55 31zM389 122q-23 -50 -70.5 -86t-97.5 -36h-100q-61 0 -61 65q0 27 13 57q20 43 84 82
q-10 13 -10 32q0 15 6 29q47 106 157 106h51q38 0 61.5 -17t23.5 -47q0 -19 -10 -42q-15 -34 -57 -59q18 -24 18 -49q0 -17 -8 -35z" />
    <glyph glyph-name="nine" unicode="9" horiz-adv-x="359" 
d="M330 246q13 29 13 44q0 21 -25 21q-22 0 -46.5 -22t-34.5 -44q-5 -13 -5 -22q0 -29 44 -29q14 0 32 3zM380 105q-21 -47 -61.5 -76.5t-87.5 -29.5h-165l70 55h14.5h16.5q77 0 99 48l16 36q-35 -13 -68 -13q-43 0 -70 20t-27 55q0 22 11 48q34 74 88 101q42 21 121 21h68
q62 0 62 -49q0 -20 -11 -46z" />
    <glyph glyph-name="colon" unicode=":" horiz-adv-x="229" 
d="M228 56q-12 -26 -47 -42q-29 -14 -58 -14q-23 0 -41 10t-18 29q0 8 4 17q12 27 47 43q30 13 58 13q23 0 41 -10t18 -28q0 -9 -4 -18zM300 218q-11 -26 -47 -42q-29 -14 -58 -14q-23 0 -39 9q-20 11 -20 30q0 8 4 17q12 27 47 43q30 13 58 13q23 0 41.5 -10t18.5 -28
q0 -9 -5 -18z" />
    <glyph glyph-name="semicolon" unicode=";" horiz-adv-x="229" 
d="M228 56q-38 -86 -150 -114l-9 19q48 9 62 39q-9 -2 -17 -2q-51 0 -51 39q0 9 5 19q12 27 47 43q30 13 58 13q23 0 41 -10t18 -28q0 -9 -4 -18zM300 218q-11 -26 -47 -42q-29 -14 -58 -14q-23 0 -39 9q-20 11 -20 30q0 8 4 17q12 27 47 43q30 13 58 13q23 0 41.5 -10
t18.5 -28q0 -9 -5 -18z" />
    <glyph glyph-name="equal" unicode="=" horiz-adv-x="229" 
d="M315 232h-189l22 48h188zM387 394h-189l22 48h188z" />
    <glyph glyph-name="question" unicode="?" horiz-adv-x="484" 
d="M286 56q-12 -26 -47 -42q-30 -14 -58 -14q-23 0 -41 10t-18 29q0 8 4 17q12 27 47 43q29 13 58 13q23 0 41 -10t18 -28q0 -9 -4 -18zM663 495q-39 -89 -185 -159l-55 -24q-35 -19 -44 -39l-58 -130l-125 60l31 70q15 34 39 52q19 14 60.5 29.5t103.5 55.5q72 47 85 76
l21 49q6 12 6 21q0 32 -50 32q-22 0 -68.5 -14.5t-67.5 -14.5q-41 0 -77 38l24 53q38 -27 69 -27q11 0 66 17q36 11 71 11q65 0 112 -13q72 -19 72 -63q0 -13 -6 -28z" />
    <glyph glyph-name="at" unicode="@" horiz-adv-x="680" 
d="M485 253l66 148q1 2 1 4q0 9 -12 9q-15 0 -21 -14l-64 -143q-5 -13 -5 -22q0 -10 8 -10q14 0 27 28zM684 292q-20 -44 -70 -78t-94 -34q-23 0 -25 23q-27 -24 -57 -24q-73 0 -73 50q0 30 32 101q23 51 58 86q43 42 90 42q34 0 52 -24l6 15h65l-36 -79l-43 -99
q-4 -8 -4 -13q0 -9 11 -9q28 0 59 70l38 86q16 36 16 64q0 53 -55 53h-184q-17 0 -31 -32l-132 -295q-7 -17 -7 -30q0 -32 62 -32q7 0 20 1h19l8 -51h-169q-53 0 -53 47q0 26 17 62l110 248q57 127 176 127h194q35 0 56 -22t21 -56q0 -24 -11 -49z" />
    <glyph glyph-name="A" unicode="A" horiz-adv-x="477" 
d="M369 185l131 293q8 20 8 44q0 66 -44 66q-23 0 -37 -31l-208 -467q-3 -6 -3 -11q0 -9 11 -9q13 0 35 11q79 39 107 104zM649 149q-25 -55 -111 -103q-82 -46 -152 -46q-58 0 -58 59q0 9 2 19q-80 -78 -196 -78q-68 0 -68 61q0 28 16 64l178 399q28 63 95 98q59 31 125 31
q87 0 116 -49l20 45h105l-245 -549q-1 -3 -1 -5q0 -7 10 -7q31 0 76.5 32.5t60.5 64.5z" />
    <glyph glyph-name="B" unicode="B" horiz-adv-x="472" 
d="M390 185l17 38q7 16 7 31q0 47 -67 77l-107 -241q-3 -6 -3 -11q0 -9 11 -9q14 0 37 12q77 40 105 103zM516 468l33 72q4 11 4 20q0 33 -40 33q-49 0 -72 -53l-78 -173q130 50 153 101zM526 165q-39 -87 -144 -131q-82 -34 -179 -34h-155l248 557q1 3 1 7q0 10 -11 19
t-22 9h-173q-24 0 -24 28q0 29 27 29h243q92 0 113 -29q42 32 122 32q49 0 86 -15q48 -19 48 -56q0 -13 -7 -29l-23 -51q-24 -54 -78 -94.5t-112 -52.5q73 -21 73 -90q0 -25 -12 -52z" />
    <glyph glyph-name="C" unicode="C" horiz-adv-x="362" 
d="M534 149q-25 -57 -114 -105q-82 -44 -141 -44h-76q-120 0 -120 79q0 36 24 90l147 331q65 146 188 146h124q63 0 63 -49q0 -12 -3 -27l-149 -54l24 54q1 2 1 4q0 13 -29 13q-33 0 -41 -18l-208 -466q-8 -20 -8 -28q0 -15 32 -15q107 0 194 57q51 35 66 68l27 -35z" />
    <glyph glyph-name="D" unicode="D" horiz-adv-x="472" 
d="M390 185l159 355q4 11 4 20q0 33 -40 33q-49 0 -72 -53l-201 -450q-3 -6 -3 -11q0 -9 11 -9q14 0 37 12q77 40 105 103zM526 165q-39 -87 -144 -131q-82 -34 -179 -34h-155l248 557q1 3 1 7q0 10 -11 19t-22 9h-173q-24 0 -24 28q0 29 27 29h243q92 0 113 -29
q42 32 122 32q49 0 86 -15q48 -19 48 -56q0 -13 -7 -29z" />
    <glyph glyph-name="E" unicode="E" horiz-adv-x="364" 
d="M543 149q-25 -57 -114 -105q-82 -44 -141 -44h-76q-120 0 -120 79q0 36 24 90l19 43q23 52 79 92q51 37 109 50q-32 7 -54.5 29.5t-22.5 53.5q1 27 31 94q7 17 15 31q-17 30 -28 30h-173q-24 0 -24 28q0 29 27 29h243q35 0 54 -16q60 21 128 21q117 0 117 -66
q0 -8 -2 -18l-149 -54l24 54q1 2 1 4q0 15 -27 15q-35 0 -52 -39l-37 -82q-5 -11 -5 -21q0 -41 68 -80l-16 -36q-126 -40 -156 -108l-54 -120q-8 -19 -8 -28q0 -16 33 -16q67 0 142 30q92 37 118 96l27 -35v-1z" />
    <glyph glyph-name="F" unicode="F" horiz-adv-x="229" 
d="M87 87l79 178q-41 -10 -74 -86l-42 -94q-1 -2 -1 -4q0 -10 14 -10q16 0 24 16zM693 649q-37 -40 -49 -56q-24 -31 -35 -61h-63l2 5q18 40 32 55h-122q-1 -16 -10 -35l-87 -196h148l-22 -48h-148l-91 -205q-24 -53 -75 -82q-45 -26 -101 -26q-37 0 -69 14q-39 17 -39 46
q0 10 5 21l44 98q58 130 196 182l87 196q1 3 1 7q0 10 -11 19t-22 9h-173q-24 0 -24 28q0 29 27 29h599z" />
    <glyph glyph-name="G" unicode="G" horiz-adv-x="471" 
d="M233 -77l42 94q-18 -5 -48.5 -43t-30.5 -55q0 -11 15 -11t22 15zM356 183l73 164l-77 42l-81 -181q-7 -16 -7 -28q0 -15 12 -15q30 0 80 18zM635 149q-22 -50 -96 -94q-65 -39 -124 -50l-26 -59q-23 -52 -75 -82q-47 -28 -100 -28q-40 0 -67 16q-30 19 -30 51q0 17 9 36
q26 60 74 106q57 55 111 55h8l7 15q-32 -9 -76 -9q-120 0 -120 78q0 36 24 90l125 283q2 3 2 7q0 10 -11 19t-22 9h-173q-25 0 -25 28q0 29 28 29h243q51 0 78 -8q21 5 43 5h139q64 0 64 -49q0 -12 -4 -27l-148 -54l24 54v3q0 14 -37 14q-40 0 -48 -18l-60 -135l188 -104
l-93 -209q-5 -10 -5 -16q0 -13 16 -13q29 0 73 32t57 61l27 -35v-1z" />
    <glyph glyph-name="H" unicode="H" horiz-adv-x="495" 
d="M670 149q-25 -55 -111 -103q-82 -46 -152 -46q-27 0 -47.5 17t-20.5 42q0 13 6 26l102 228h-108l-139 -313h-152l248 557q1 3 1 7q0 10 -11 19t-22 9h-173q-24 0 -24 28q0 29 27 29h243q120 0 120 -54q0 -17 -9 -38l-87 -196h108l128 288h145l-245 -549q-1 -3 -1 -5
q0 -7 10 -7q31 0 77 32.5t60 64.5z" />
    <glyph glyph-name="I" unicode="I" horiz-adv-x="229" 
d="M209 0h-152l247 557q2 3 2 7q0 10 -11 19t-22 9h-173q-25 0 -25 28q0 29 27 29h244q120 0 120 -54q0 -17 -10 -38z" />
    <glyph glyph-name="J" unicode="J" horiz-adv-x="303" 
d="M89 -75l101 226q-24 -6 -58.5 -33t-45.5 -52l-63 -143l-1 -1q0 -12 33 -12q27 0 34 15zM251 -54q-24 -53 -75 -82q-46 -26 -101 -26q-42 0 -84 15q-53 19 -53 50q0 8 4 16l65 147q26 58 93 109q59 45 133 73l137 309q2 3 2 7q0 10 -11 19t-22 9h-173q-25 0 -25 28
q0 29 27 29h244q120 0 120 -54q0 -17 -9 -38z" />
    <glyph glyph-name="K" unicode="K" horiz-adv-x="388" 
d="M574 149q-26 -60 -118 -107q-82 -42 -145 -42q-13 0 -29 7q-34 15 -34 50q0 18 10 41l84 188q2 6 2 10q0 15 -26 15q-5 0 -9 -1l-137 -310h-153l248 557q2 3 2 7q0 10 -11.5 19t-21.5 9h-173q-25 0 -25 28q0 29 27 29h243q121 0 121 -54q0 -17 -10 -38l-79 -178
q5 -1 12 -1q31 0 41 23l70 156q18 41 57 66.5t80 25.5h116q16 0 16 -10q0 -14 -21.5 -30.5t-36.5 -16.5h-6.5h-9.5q-19 0 -28 -3q-20 -10 -43 -63l-56 -125q-16 -35 -83 -56q35 -23 35 -45q0 -7 -3 -14l-70 -157q-6 -13 -6 -22q0 -15 16 -15q30 0 72 32t56 61l27 -35z" />
    <glyph glyph-name="L" unicode="L" horiz-adv-x="525" 
d="M103 6l23 54l-37 -22q-13 -9 -23 -34q-1 -2 -1 -4q0 -10 14 -10q16 0 24 16zM576 560q0 15 -15 15q-33 0 -69 -35q32 -12 39 -12q28 0 40 18q5 7 5 14zM686 117q-68 -67 -107 -89q-51 -30 -120 -30q-41 0 -94.5 30.5t-86.5 31.5l-14 -33q-23 -51 -78 -80
q-48 -25 -102 -25q-39 0 -67 15q-32 17 -32 48q0 15 7 32q25 54 70.5 89t100.5 36l152 342q9 21 14 29q9 17 20 27q-92 61 -155 61q-25 0 -68 -13.5t-48 -13.5q-15 0 -15 21q0 20 29 31q51 20 112 20q101 0 202 -53q57 53 160 53q85 0 85 -53q0 -16 -10 -37
q-17 -39 -52.5 -61.5t-74.5 -22.5q-28 0 -47 12l-153 -343q47 -6 84 -30l53 -37q31 -19 68 -19q58 0 128 72z" />
    <glyph glyph-name="M" unicode="M" horiz-adv-x="750" 
d="M930 149q-25 -56 -112 -103q-82 -46 -152 -46q-26 0 -46.5 17t-20.5 42q0 13 6 26l210 472q5 10 5 17q0 14 -16 14q-33 0 -78 -37.5t-60 -72.5l-213 -478h-145l247 557q5 11 5 18q0 13 -14 13q-32 0 -77 -40q-41 -36 -56 -70l-213 -478h-152l248 557q1 3 1 7q0 10 -11 19
t-22 9h-173q-24 0 -24 28q0 29 27 29h243q99 0 117 -35q71 40 139 40q36 0 69 -7q50 -10 51 -33q42 40 128 40h11q40 0 74 -18q40 -21 40 -54q0 -12 -6 -25l-203 -457q-1 -3 -1 -5q0 -7 9 -7q32 0 77.5 32.5t60.5 64.5z" />
    <glyph glyph-name="N" unicode="N" horiz-adv-x="495" 
d="M670 149q-25 -56 -111 -103q-82 -46 -152 -46q-27 0 -47.5 17t-20.5 42q0 13 6 26l210 472q5 10 5 18q0 13 -14 13q-32 0 -77 -40q-41 -36 -56 -70l-213 -478h-152l248 557q1 3 1 7q0 10 -11 19t-22 9h-173q-24 0 -24 28q0 29 27 29h243q99 0 117 -35q71 40 139 40
q39 0 74 -18q39 -21 39 -54q0 -12 -5 -25l-204 -457q-1 -3 -1 -5q0 -7 10 -7q31 0 77 32.5t60 64.5z" />
    <glyph glyph-name="O" unicode="O" horiz-adv-x="477" 
d="M350 142l150 336q8 20 8 44q0 66 -44 66q-23 0 -37 -31l-185 -415q-4 -9 -4 -17q0 -35 43 -35q46 0 69 52zM622 565q6 12 6 26q0 19 -13 19q-21 0 -21 -20q0 -10 7 -18t16 -8q2 0 5 1zM802 552q-35 -50 -151 -62l-163 -365q-56 -125 -254 -125q-163 0 -163 79q0 20 11 46
l178 399q29 64 95 98q56 29 124 29q42 0 80 -12q32 23 72 23q60 0 60 -50q0 -25 -18 -55q16 -5 28 -5q33 0 71 28q4 3 9 3q8 0 16 -7t8 -15q0 -5 -3 -9z" />
    <glyph glyph-name="P" unicode="P" horiz-adv-x="472" 
d="M430 273l119 267q4 11 4 20q0 33 -40 33q-49 0 -72 -53l-164 -368q130 50 153 101zM589 306q-42 -94 -145 -137q-79 -33 -183 -33l-61 -136h-152l248 557q1 3 1 7q0 10 -11 19t-22 9h-73q-24 0 -24 28q0 29 27 29h143q92 0 113 -29q42 32 122 32q49 0 86 -15
q48 -19 48 -56q0 -13 -7 -29z" />
    <glyph glyph-name="Q" unicode="Q" horiz-adv-x="477" 
d="M350 142l150 336q8 20 8 44q0 66 -44 66q-23 0 -37 -31l-185 -415q-4 -9 -4 -17q0 -35 43 -35q46 0 69 52zM622 565q6 12 6 26q0 19 -13 19q-21 0 -21 -20q0 -10 7 -18t16 -8q2 0 5 1zM802 552q-49 -51 -151 -62l-163 -365q-46 -102 -185 -120l-61 -139l-97 57l35 80
q-109 12 -109 76q0 20 11 46l178 399q29 64 95 98q56 29 124 29q42 0 80 -12q31 23 72 23q60 0 60 -50q0 -25 -18 -55q16 -5 28 -5q24 0 71 28z" />
    <glyph glyph-name="R" unicode="R" horiz-adv-x="472" 
d="M516 468l33 72q4 11 4 20q0 33 -40 33q-49 0 -72 -53l-78 -173q130 50 153 101zM668 150q-25 -57 -109.5 -103.5t-153.5 -46.5q-27 0 -44 19.5t-17 45.5q0 17 7 33l56 125q7 16 7 31q0 47 -67 77l-147 -331h-152l248 557q1 3 1 7q0 10 -11 19t-22 9h-73q-24 0 -24 28
q0 29 27 29h143q92 0 113 -29q42 32 122 32q49 0 86 -15q48 -19 48 -56q0 -13 -7 -29l-23 -51q-24 -54 -78 -94.5t-112 -52.5q73 -21 73 -90q0 -25 -12 -52l-40 -91q-5 -10 -5 -17q0 -12 14 -12q29 0 70.5 32t54.5 61z" />
    <glyph glyph-name="S" unicode="S" horiz-adv-x="402" 
d="M347 196q0 12 -15 83q-61 -22 -93 -48q-37 -30 -60 -83q-7 -15 -7 -31q0 -24 13.5 -40.5t35.5 -16.5q32 0 65 22t47 53t14 61zM590 560q0 15 -15 15q-33 0 -69 -35q32 -12 39 -12q28 0 40 18q5 7 5 14zM212 -6q-67 0 -110 27q-46 30 -46 83q0 30 16 66q52 117 177 169
q40 17 66 17q-7 32 -7 56q0 40 21 72q9 21 34 56l-48 36q-35 25 -53 25q-19 0 -53 -13.5t-36 -13.5q-14 0 -14 22q0 17 18 26q52 24 106 24q40 0 76 -17l61 -36q57 53 160 53q84 0 84 -53q0 -16 -9 -37q-17 -39 -52.5 -61.5t-74.5 -22.5q-28 0 -47 12q-22 -28 -22 -49
q0 -16 12 -35l20 -29q20 -10 45 -10q16 0 30 5l-22 -49q-14 -10 -42 -11q9 -19 9 -41q0 -33 -26 -91l-15 -35q-33 -71 -114 -111q-69 -34 -144 -34z" />
    <glyph glyph-name="T" unicode="T" horiz-adv-x="347" 
d="M762 649q-37 -40 -49 -56q-24 -31 -35 -61h-63l2 5q18 40 32 55h-122q-1 -15 -10 -35l-239 -557h-159l246 557q1 3 1 7q0 10 -11 19t-22 9h-173q-24 0 -24 28q0 29 27 29h599z" />
    <glyph glyph-name="U" unicode="U" horiz-adv-x="495" 
d="M670 149q-25 -56 -111 -103q-82 -46 -152 -46q-58 0 -58 59q0 9 2 19q-80 -78 -196 -78q-68 0 -68 61q0 28 16 64l193 432q1 3 1 7q0 10 -11 19t-22 9h-173q-24 0 -24 28q0 29 27 29h243q120 0 120 -54q0 -17 -9 -38l-208 -467q-3 -6 -3 -11q0 -9 11 -9q12 0 33 10
q80 39 109 105l207 464h145l-245 -549q-1 -3 -1 -5q0 -7 10 -7q31 0 77 32.5t60 64.5z" />
    <glyph glyph-name="V" unicode="V" horiz-adv-x="495" 
d="M628 392q-61 -135 -195 -256q-150 -136 -278 -136q-68 0 -68 61q0 28 16 64l193 432q1 3 1 7q0 10 -11 19t-22 9h-173q-24 0 -24 28q0 29 27 29h243q120 0 120 -54q0 -17 -9 -38l-208 -467q-3 -6 -3 -11q0 -9 11 -9q12 0 34 11q79 38 108 104l207 464h145z" />
    <glyph glyph-name="W" unicode="W" horiz-adv-x="753" 
d="M887 392q-60 -135 -194 -256q-151 -136 -279 -136q-68 0 -68 61q0 3 1 8q-104 -69 -192 -69q-68 0 -68 61q0 28 16 64l193 432q1 3 1 7q0 10 -11 19t-22 9h-176q-25 0 -25 28q0 29 27 29h247q120 0 120 -54q0 -17 -9 -38l-208 -467q-2 -6 -2 -10q0 -10 12 -10
q32 0 75.5 34.5t57.5 66.5l213 478h146l-249 -559q-3 -6 -3 -10q0 -10 12 -10q34 0 83 40t64 75l207 464h145z" />
    <glyph glyph-name="X" unicode="X" horiz-adv-x="495" 
d="M682 149q-24 -55 -111 -103q-82 -46 -152 -46q-28 0 -50.5 21.5t-22.5 50.5q0 13 5 26l105 235q3 6 3 11q0 9 -11 9q-12 0 -33 -11q-80 -38 -109 -104l-106 -237h-145l32 70q29 67 83 135q57 74 119 119q-57 5 -57 59q0 29 16 65l48 108q1 3 1 7q0 10 -11 19t-22 9h-173
q-24 0 -24 28q0 29 27 29h243q120 0 120 -54q0 -17 -9 -38l-64 -143q-2 -6 -2 -11q0 -9 11 -9q12 0 33 11q79 38 108 104l63 140h145l-10 -22q-51 -115 -187 -213q63 -3 63 -56q0 -26 -15 -60l-79 -177q-4 -10 -4 -16q0 -13 15 -13q30 0 73.5 32t57.5 61l27 -35z" />
    <glyph glyph-name="Y" unicode="Y" horiz-adv-x="495" 
d="M274 -75q17 41 53 121q-40 -10 -74 -86l-16 -37q-1 -2 -1 -4q0 -10 15 -10q16 0 23 16zM435 -54q-24 -54 -77 -84q-48 -28 -104 -28q-37 0 -67 14q-36 17 -36 47q0 11 6 24l18 41q58 130 195 182l7 14q-97 -58 -179 -58q-67 0 -67 60q0 28 16 64l149 335q1 3 1 7
q0 10 -11 19t-22 9h-173q-24 0 -24 28q0 29 27 29h243q120 0 120 -54q0 -17 -9 -38l-165 -369q-2 -7 -2 -11q0 -9 11 -9q27 0 74.5 36.5t59.5 63.5l170 381h152z" />
    <glyph glyph-name="Z" unicode="Z" horiz-adv-x="586" 
d="M215 132q-30 0 -71 -13q-52 -16 -52 -39q0 -13 27 -13q38 0 96 65zM750 117q-68 -67 -106 -89q-52 -30 -120 -30q-39 0 -73 27l-52 50q-29 27 -55 41q-50 -52 -114 -84t-122 -32q-83 0 -83 56q0 15 8 34q53 120 251 125l359 376q1 2 1 4q0 8 -18 8h-232q-15 0 -15 18
q0 9 4 18t10 9h449q13 0 13 -8q0 -9 -12 -20l-426 -431q34 -13 63 -42l44 -56q32 -36 59 -36q59 0 129 72z" />
    <glyph glyph-name="backslash" unicode="\" horiz-adv-x="366" 
d="M291 567l10 -486h87l-11 486h-86z" />
    <glyph glyph-name="underscore" unicode="_" horiz-adv-x="434" 
d="M327 -162h-374l33 74h373z" />
    <glyph glyph-name="grave" unicode="`" horiz-adv-x="509" 
d="M677 679h-82l-60 110h109z" />
    <glyph glyph-name="a" unicode="a" horiz-adv-x="391" 
d="M246 98l87 196q2 4 2 6q0 12 -17 12q-22 0 -30 -19l-85 -190q-7 -16 -7 -29q0 -14 12 -14q21 0 38 38zM563 150q-26 -57 -112 -104q-82 -46 -152 -46q-32 0 -37 30q-36 -32 -81 -32q-106 0 -106 72q0 38 27 99l14 31q31 70 81 116q60 55 126 55q49 0 75 -33l9 20h92
l-44 -99l-61 -138q-4 -9 -4 -16q0 -13 15 -13q30 0 73.5 32t57.5 61z" />
    <glyph glyph-name="b" unicode="b" horiz-adv-x="378" 
d="M260 98l88 196q1 4 1 6q0 12 -17 12q-21 0 -29 -19l-88 -195q-6 -16 -6 -27q0 -14 11 -14q22 0 40 41zM588 189l-18 -22q-91 -108 -175 -108q-31 0 -38 21q-31 -38 -85 -61q-48 -21 -91 -21q-106 0 -106 82q0 29 17 66l224 503h145l-132 -297q31 17 60 17q31 0 49 -19.5
t18 -50.5q0 -38 -44 -137q-4 -9 -4 -16q0 -17 22 -17q34 0 69.5 27.5t50.5 61.5z" />
    <glyph glyph-name="c" unicode="c" horiz-adv-x="326" 
d="M502 149q-25 -57 -114 -105q-82 -44 -141 -44h-76q-108 0 -108 71q0 37 28 98l32 72q24 54 65 90q46 40 99 40h99q64 0 64 -50q0 -11 -3 -26l-149 -54l24 53q1 4 1 6q0 12 -17 12q-21 0 -29 -19l-85 -190q-7 -16 -7 -28q0 -15 12 -15h29q96 0 183 57q51 34 67 68l26 -35
v-1z" />
    <glyph glyph-name="d" unicode="d" horiz-adv-x="390" 
d="M244 84l97 218q-4 6 -15 6q-22 0 -30 -18l-88 -199q-6 -13 -6 -22q0 -12 11 -12q19 0 31 27zM571 146q-25 -55 -111 -103q-82 -45 -152 -45q-44 0 -46 28q-39 -30 -72 -30q-106 0 -106 72q0 37 27 98l14 32q31 70 81 116q59 54 126 54q19 0 36 -6l128 287h145l-242 -544
q-1 -2 -1 -4q0 -11 13 -11q26 0 69 29q23 16 65 64l26 -36v-1z" />
    <glyph glyph-name="e" unicode="e" horiz-adv-x="320" 
d="M285 212l37 82q1 4 1 6q0 12 -17 12q-21 0 -29 -19l-37 -81h45zM502 149q-25 -57 -114 -105q-82 -44 -141 -44h-76q-108 0 -108 71q0 37 28 98l32 72q24 54 65 90q46 40 99 40h99q64 0 64 -49q0 -30 -35 -109q-25 -57 -99 -57h-100l-24 -53q-7 -16 -7 -28q0 -15 12 -15
h29q97 0 183 57q51 35 67 68l26 -35v-1z" />
    <glyph glyph-name="f" unicode="f" horiz-adv-x="299" 
d="M174 -77l40 89q15 33 15 60q0 22 -13 26l-77 -175q-2 -4 -2 -7q0 -8 10 -8q21 0 27 15zM347 310l114 256q1 2 1 4q0 11 -16 11q-14 0 -21 -15l-152 -342q40 11 74 86zM417 100q-18 -20 -49 -33t-54 -13q-12 0 -22 3q9 -10 9 -18q0 -7 -8 -27l-42 -93q-17 -39 -78 -62
q-50 -19 -94 -19q-87 0 -87 61q0 21 11 47l266 597q24 53 73 82q45 26 99 26q37 0 68 -14q37 -17 37 -46q0 -10 -5 -21l-116 -260q-19 -43 -51 -83q-40 -50 -78 -66q8 -44 47 -44q23 0 47 19z" />
    <glyph glyph-name="g" unicode="g" horiz-adv-x="372" 
d="M151 -77q14 34 45 101q-35 -24 -52 -46q-12 -16 -29 -55q-1 -2 -1 -4q0 -11 15 -11t22 15zM256 146l66 148q1 4 1 6q0 12 -17 12q-21 0 -29 -19l-67 -150q-7 -15 -7 -26q0 -13 11 -13q23 0 42 42zM551 150q-19 -43 -79.5 -85t-103.5 -42q-15 0 -26 6l-36 -83
q-24 -55 -81 -86q-51 -28 -108 -28q-41 0 -70 17.5t-29 50.5q0 17 9 38q32 72 121 94q-65 12 -65 80q0 39 22 88q31 70 81 116q59 55 125 55q49 0 76 -33l9 20h92l-99 -221q-10 -21 -10 -32q0 -13 15 -13q29 0 73 32t57 61z" />
    <glyph glyph-name="h" unicode="h" horiz-adv-x="394" 
d="M571 149q-25 -55 -111 -103q-82 -46 -152 -46q-16 0 -32 8q-31 16 -31 49q0 18 9 41l88 196q2 6 2 10q0 11 -13 11q-23 0 -33 -22l-130 -293h-145l289 649h145l-128 -286q39 21 72 21q70 0 70 -73q0 -36 -18 -77l-50 -113q-5 -10 -5 -16q0 -13 16 -13q29 0 73 32t57 61
l27 -35v-1z" />
    <glyph glyph-name="i" unicode="i" horiz-adv-x="218" 
d="M395 149q-24 -55 -111 -103q-82 -46 -152 -46q-26 0 -43 19.5t-17 45.5q0 17 7 33l131 293l110 -61l-93 -209q-4 -10 -4 -16q0 -13 15 -13q30 0 73.5 32t57.5 61l27 -35zM406 498q-12 -27 -47 -43q-29 -13 -58 -13q-23 0 -41 10t-18 28q0 8 4 18q12 26 47 42q29 14 58 14
q23 0 41 -10t18 -29q0 -8 -4 -17z" />
    <glyph glyph-name="j" unicode="j" horiz-adv-x="257" 
d="M42 -77l41 94q-18 -5 -48 -43t-30 -55q0 -11 15 -11t22 15zM443 149q-22 -50 -96 -94q-65 -39 -124 -50l-26 -59q-23 -52 -74 -82q-47 -28 -101 -28q-40 0 -67 16q-30 19 -30 51q0 17 9 36q27 60 74 106q57 55 112 55h8l129 291l111 -61l-93 -209q-4 -10 -4 -16
q0 -13 15 -13q30 0 73.5 32t57.5 61l26 -35v-1zM454 498q-12 -27 -47 -43q-30 -13 -58 -13q-23 0 -40 9q-20 11 -20 29q0 8 4 18q12 26 47 42q30 14 59 14q22 0 40.5 -10t18.5 -29q0 -8 -4 -17z" />
    <glyph glyph-name="k" unicode="k" horiz-adv-x="388" 
d="M381 300q1 3 1 5q0 10 -13 10q-33 0 -83 -58q9 6 55 18q33 9 40 25zM574 149q-24 -55 -111 -103q-82 -46 -152 -46q-15 0 -31 8q-32 16 -32 48q0 26 22.5 72t22.5 55q0 11 -13 11q-22 0 -32 -22l-76 -172h-146l289 649h145l-136 -306q42 44 111 44q58 0 58 -40
q0 -16 -9 -37q-19 -42 -79 -67q26 -7 26 -38q0 -29 -21 -76q-6 -13 -6 -22q0 -15 16 -15q30 0 72 32t56 61l27 -35z" />
    <glyph glyph-name="l" unicode="l" horiz-adv-x="285" 
d="M397 424l64 142q0 2 1 4q0 10 -15 10q-16 0 -23 -16l-101 -226q40 10 74 86zM438 149q-28 -63 -108 -108q-73 -41 -139 -41q-47 0 -79 25q-35 27 -35 72q0 15 6 29l186 417q24 53 73 82q45 26 99 26q37 0 68 -14q37 -17 37 -46q0 -10 -5 -21l-65 -146q-58 -130 -196 -183
l-52 -117q-5 -10 -5 -18q0 -22 31 -22q41 0 90.5 30.5t66.5 70.5z" />
    <glyph glyph-name="m" unicode="m" horiz-adv-x="590" 
d="M759 149q-25 -55 -112 -103q-82 -46 -151 -46q-14 0 -29 7q-34 15 -34 50q0 18 9 41l88 196q2 6 2 10q0 11 -13 11q-23 0 -33 -22l-130 -293h-145l131 294q2 6 2 10q0 11 -14 11q-22 0 -32 -22l-130 -293h-146l174 391l92 -49q41 42 113 42q52 0 67 -46q50 46 121 46
q70 0 70 -73q0 -36 -18 -77l-50 -113q-5 -10 -5 -16q0 -13 16 -13q29 0 73 32t57 61l27 -35v-1z" />
    <glyph glyph-name="n" unicode="n" horiz-adv-x="399" 
d="M574 149q-24 -55 -111 -103q-82 -46 -152 -46q-14 0 -30 8q-33 15 -33 49q0 18 10 41l88 196q2 6 2 10q0 11 -14 11q-22 0 -32 -22l-130 -293h-146l174 391l92 -49q41 42 113 42q70 0 70 -73q0 -36 -18 -77l-51 -113q-4 -10 -4 -16q0 -13 15 -13q30 0 73.5 32t57.5 61
l27 -35z" />
    <glyph glyph-name="o" unicode="o" horiz-adv-x="353" 
d="M243 85l78 176q-18 5 -18 34q0 10 3 16q-16 -9 -23 -26l-89 -200q-4 -9 -4 -17q0 -15 14 -15q24 0 39 32zM407 301q6 13 6 27q0 19 -13 19q-21 0 -21 -20q0 -10 7 -18.5t16 -8.5q3 0 5 1zM587 288q-49 -51 -150 -61l-24 -55q-77 -172 -176 -172h-113q-59 0 -59 55
q0 35 24 90l40 88q24 54 67 93q49 45 101 45h41q32 28 78 28q60 0 60 -50q0 -25 -18 -56q17 -4 28 -4q24 0 71 28z" />
    <glyph glyph-name="p" unicode="p" horiz-adv-x="368" 
d="M260 98l88 196q1 4 1 6q0 12 -17 12q-21 0 -29 -19l-88 -195q-6 -16 -6 -27q0 -14 11 -14q22 0 40 41zM588 189l-18 -21q-90 -109 -175 -109q-31 0 -38 21q-29 -34 -67 -56q-41 -23 -76 -23q-22 0 -40 9l-76 -171h-143l231 519h91l-13 -30q40 34 104 34q88 0 88 -62
q0 -39 -44 -138q-4 -9 -4 -16q0 -17 22 -17q34 0 69.5 27.5t50.5 61.5z" />
    <glyph glyph-name="q" unicode="q" horiz-adv-x="368" 
d="M234 98l88 196q1 4 1 6q0 12 -17 12q-21 0 -29 -19l-85 -190q-7 -16 -7 -29q0 -14 12 -14q20 0 37 38zM551 149q-19 -42 -80.5 -84.5t-102.5 -42.5q-16 0 -26 7l-84 -187h-137l71 159q-12 -3 -22 -3q-107 0 -107 72q0 38 28 99l14 31q31 70 81 116q59 55 125 55
q49 0 76 -33l9 20h92l-105 -237q-5 -10 -5 -16q0 -13 16 -13q29 0 73 32t57 61l27 -35v-1z" />
    <glyph glyph-name="r" unicode="r" horiz-adv-x="387" 
d="M560 149q-25 -55 -111 -103q-82 -46 -152 -46q-63 0 -63 57q0 19 9 40l70 156q1 2 1 5q0 7 -8 12.5t-16 5.5q-12 0 -23 -25q-48 -107 -158 -166q-33 -18 -56 -20l148 331l214 -121q23 -13 23 -43q0 -7 -3 -12l-44 -100q-4 -9 -4 -16q0 -13 15 -13q30 0 73.5 32t57.5 62z
" />
    <glyph glyph-name="s" unicode="s" horiz-adv-x="378" 
d="M291 138q12 27 12 57t-12 46l-83 -94q-4 -16 -4 -31q0 -29 16 -29q48 0 71 51zM369 417q0 4 -7 4q-13 0 -18 -11q-3 -7 -3 -15q0 -5 1 -12q27 28 27 34zM567 147q-47 -73 -139 -113q-79 -34 -160 -34q-132 0 -132 94v3q-35 -40 -141 -82l3 50q181 115 271 240
q-3 10 -3 22q0 32 16 68q35 78 95 78q51 0 51 -32q0 -13 -7 -30q-13 -27 -55 -81q72 -89 72 -138q0 -64 -89 -127q47 0 107 37q56 34 86 88z" />
    <glyph glyph-name="t" unicode="t" horiz-adv-x="237" 
d="M397 149q-25 -56 -111 -103q-82 -46 -152 -46q-30 0 -47 17t-17 43q0 19 9 40l95 213h-38l22 48h37l129 288h145l-128 -288h40l-22 -48h-40l-95 -213q-1 -3 -1 -5q0 -7 10 -7q31 0 77 32.5t60 64.5z" />
    <glyph glyph-name="u" unicode="u" horiz-adv-x="380" 
d="M562 149q-25 -55 -111 -103q-82 -46 -152 -46q-32 0 -37 30q-37 -32 -81 -32q-107 0 -107 72q0 37 28 99l84 189h131l-114 -255q-7 -16 -7 -29q0 -14 12 -14q21 0 37 38l130 293l111 -61l-92 -209q-4 -9 -4 -16q0 -13 15 -13q29 0 73 32t57 61l27 -35v-1z" />
    <glyph glyph-name="v" unicode="v" horiz-adv-x="348" 
d="M413 169q-30 -68 -97 -118q-70 -53 -137 -53q-107 0 -107 72q0 37 28 99l84 189h131l-114 -255q-7 -16 -7 -29q0 -14 12 -14q21 0 37 38l131 293l111 -61z" />
    <glyph glyph-name="w" unicode="w" horiz-adv-x="519" 
d="M583 301q5 13 5 27q0 19 -13 19q-21 0 -21 -20q0 -10 7 -18.5t16 -8.5q3 0 6 1zM762 288q-49 -50 -150 -61l-43 -97q-40 -89 -163 -122q-34 -10 -54 -10q-63 0 -88 23q-44 -23 -86 -23q-107 0 -107 72q0 37 27 99l99 222l104 -61l-102 -227q-7 -16 -7 -29q0 -14 12 -14
q21 0 38 38l95 212l102 -61l-65 -146q-7 -16 -7 -29q0 -14 12 -14q20 0 37 38l74 166q-11 7 -11 25q0 19 12 45q29 66 97 66q64 0 64 -51q0 -25 -19 -56q18 -4 29 -4q23 0 70 28z" />
    <glyph glyph-name="x" unicode="x" horiz-adv-x="255" 
d="M423 149q-25 -56 -112 -103q-82 -46 -152 -46q-62 0 -63 56l-36 -23h-63l123 96l69 154q5 11 5 19q0 18 -26 18q-35 0 -85 -58q23 48 58 79q42 36 87 36q38 0 59 -24t21 -61v-6l35 27h63l-105 -85q-1 -5 -47 -108q-5 -9 -5 -17q0 -14 17 -14q30 0 73 32.5t57 63.5z" />
    <glyph glyph-name="y" unicode="y" horiz-adv-x="370" 
d="M151 -77q14 34 45 101q-35 -24 -52 -46q-12 -16 -29 -55q-1 -2 -1 -4q0 -11 15 -11t22 15zM551 149q-22 -50 -96 -94q-64 -39 -123 -50l-26 -59q-24 -55 -81 -86q-51 -28 -108 -28q-41 0 -70 17.5t-29 50.5q0 18 9 38q32 72 121 94q-69 13 -69 73q0 37 26 95l85 191
l103 -61l-83 -187q-7 -15 -7 -26q0 -13 11 -13q23 0 42 42l116 261l104 -77l-93 -209q-5 -10 -5 -16q0 -13 16 -13q29 0 73 32t57 61l27 -35v-1z" />
    <glyph glyph-name="z" unicode="z" horiz-adv-x="331" 
d="M502 150q-25 -58 -114 -105q-81 -45 -141 -45h-76q-52 0 -75 7q-43 12 -43 50q0 26 18 65q25 57 80 81q46 12 94.5 26t64.5 49q4 9 4 16q0 22 -27 22h-85l-20 55h204q32 0 52.5 -15t20.5 -41q0 -15 -8 -34q-21 -47 -76 -74q-14 -6 -99 -34q-68 -23 -89 -70q-4 -9 -4 -17
q0 -26 43 -26q62 0 136 31q88 38 114 94z" />
    <glyph glyph-name="asciitilde" unicode="~" horiz-adv-x="132" 
d="M420 671l-33 -24h-34l-6 14l-16 -14h-26l33 24h29l7 -14l20 14h26z" />
    <glyph glyph-name="glyph95" 
 />
    <glyph glyph-name="glyph96" 
 />
    <glyph glyph-name="glyph97" 
 />
    <glyph glyph-name="glyph98" 
 />
    <glyph glyph-name="glyph99" 
 />
    <glyph glyph-name="glyph100" 
 />
    <glyph glyph-name="glyph101" 
 />
    <glyph glyph-name="glyph102" 
 />
    <glyph glyph-name="glyph103" 
 />
    <glyph glyph-name="glyph104" 
 />
    <glyph glyph-name="glyph105" 
 />
    <glyph glyph-name="glyph106" 
 />
    <glyph glyph-name="glyph107" 
 />
    <glyph glyph-name="glyph108" 
 />
    <glyph glyph-name="glyph109" 
 />
    <glyph glyph-name="glyph110" 
 />
    <glyph glyph-name="glyph111" 
 />
    <glyph glyph-name="glyph112" 
 />
    <glyph glyph-name="glyph113" 
 />
    <glyph glyph-name="glyph114" 
 />
    <glyph glyph-name="glyph115" 
 />
    <glyph glyph-name="glyph116" 
 />
    <glyph glyph-name="glyph117" 
 />
    <glyph glyph-name="glyph118" 
 />
    <glyph glyph-name="glyph119" 
 />
    <glyph glyph-name="glyph120" 
 />
    <glyph glyph-name="glyph121" 
 />
    <glyph glyph-name="glyph122" 
 />
    <glyph glyph-name="glyph123" 
 />
    <glyph glyph-name="glyph124" 
 />
    <glyph glyph-name="glyph125" 
 />
    <glyph glyph-name="glyph126" 
 />
    <glyph glyph-name="glyph127" 
 />
    <glyph glyph-name="glyph128" 
 />
    <glyph glyph-name="exclamdown" unicode="&#xa1;" horiz-adv-x="290" 
d="M429 363q0 19 -18.5 29t-40.5 10q-31 0 -61 -15q-33 -16 -45 -41q-4 -9 -4 -18q0 -18 20 -29q17 -9 40 -9q59 0 93 38q16 18 16 35zM383 259l-179 -60l-158 -354q-5 -11 -27 -23t-36 -12h-13q-15 0 -34 -13.5t-25 -28.5q-7 -15 10 -15h84q152 0 194 92z" />
    <glyph glyph-name="sterling" unicode="&#xa3;" 
 />
    <glyph glyph-name="currency" unicode="&#xa4;" 
 />
    <glyph glyph-name="section" unicode="&#xa7;" 
 />
    <glyph glyph-name="dieresis" unicode="&#xa8;" horiz-adv-x="581" 
d="M616 738q-9 -20 -30.5 -32t-41.5 -12q-37 0 -37 28q0 7 4 16q9 20 30 32t42 12q36 0 36 -28q0 -8 -3 -16zM725 738q-8 -20 -29.5 -32t-41.5 -12q-37 0 -37 28q0 7 4 16q8 19 30 31.5t42 12.5q36 0 36 -28q0 -8 -4 -16z" />
    <glyph glyph-name="ordfeminine" unicode="&#xaa;" 
 />
    <glyph glyph-name="guillemotleft" unicode="&#xab;" 
 />
    <glyph glyph-name="logicalnot" unicode="&#xac;" 
 />
    <glyph glyph-name="glyph137" 
 />
    <glyph glyph-name="overscore" unicode="&#xaf;" 
 />
    <glyph glyph-name="plusminus" unicode="&#xb1;" 
 />
    <glyph glyph-name="twosuperior" unicode="&#xb2;" 
 />
    <glyph glyph-name="threesuperior" unicode="&#xb3;" 
 />
    <glyph glyph-name="acute" unicode="&#xb4;" horiz-adv-x="509" 
d="M742 789l-157 -110h-82l130 110h109z" />
    <glyph glyph-name="mu1" unicode="&#xb5;" 
 />
    <glyph glyph-name="middot" unicode="&#xb7;" 
 />
    <glyph glyph-name="middot" unicode="&#x2219;" 
 />
    <glyph glyph-name="cedilla" unicode="&#xb8;" horiz-adv-x="514" 
d="M299 -82q-17 -40 -62 -65q-41 -23 -82 -23q-19 0 -44 3l9 21q16 -2 23 -2q23 0 48 15.5t35 38.5q3 7 3 14q0 22 -29 22q-4 0 -10 -1l92 87h30l-42 -39q37 -10 37 -41q0 -13 -8 -30z" />
    <glyph glyph-name="onesuperior" unicode="&#xb9;" 
 />
    <glyph glyph-name="guillemotright" unicode="&#xbb;" 
 />
    <glyph glyph-name="onequarter" unicode="&#xbc;" 
 />
    <glyph glyph-name="onehalf" unicode="&#xbd;" 
 />
    <glyph glyph-name="threequarters" unicode="&#xbe;" 
 />
    <glyph glyph-name="questiondown" unicode="&#xbf;" horiz-adv-x="484" 
d="M317 360q12 26 47 42q29 14 58 14q23 0 41 -10t18 -29q0 -8 -4 -17q-12 -27 -47 -43q-30 -13 -58 -13q-23 0 -41 10t-18 28q0 9 4 18zM-61 -79q40 89 186 159l55 24q34 19 43 39l59 131l125 -61l-31 -70q-15 -34 -40 -52q-18 -14 -59.5 -29.5t-103.5 -55.5
q-72 -47 -85 -76l-22 -49q-5 -12 -5 -21q0 -32 50 -32q22 0 68 14.5t68 14.5q41 0 77 -38l-24 -53q-38 27 -69 27q-11 0 -67 -17q-36 -10 -71 -10q-64 0 -111 12q-73 19 -73 63q0 13 7 28z" />
    <glyph glyph-name="Agrave" unicode="&#xc0;" horiz-adv-x="477" 
d="M369 185l131 293q8 20 8 44q0 66 -44 66q-23 0 -37 -31l-208 -467q-3 -6 -3 -11q0 -9 11 -9q13 0 35 11q79 39 107 104zM649 149q-25 -55 -111 -103q-82 -46 -152 -46q-58 0 -58 59q0 9 2 19q-80 -78 -196 -78q-68 0 -68 61q0 28 16 64l178 399q28 63 95 98q59 31 125 31
q87 0 116 -49l20 45h105l-245 -549q-1 -3 -1 -5q0 -7 10 -7q31 0 76.5 32.5t60.5 64.5zM707 679h-82l-60 110h109z" />
    <glyph glyph-name="Aacute" unicode="&#xc1;" horiz-adv-x="477" 
d="M369 185l131 293q8 20 8 44q0 66 -44 66q-23 0 -37 -31l-208 -467q-3 -6 -3 -11q0 -9 11 -9q13 0 35 11q79 39 107 104zM649 149q-25 -55 -111 -103q-82 -46 -152 -46q-58 0 -58 59q0 9 2 19q-80 -78 -196 -78q-68 0 -68 61q0 28 16 64l178 399q28 63 95 98q59 31 125 31
q87 0 116 -49l20 45h105l-245 -549q-1 -3 -1 -5q0 -7 10 -7q31 0 76.5 32.5t60.5 64.5zM712 789l-157 -110h-82l130 110h109z" />
    <glyph glyph-name="Acircumflex" unicode="&#xc2;" horiz-adv-x="477" 
d="M369 185l131 293q8 20 8 44q0 66 -44 66q-23 0 -37 -31l-208 -467q-3 -6 -3 -11q0 -9 11 -9q13 0 35 11q79 39 107 104zM649 149q-25 -55 -111 -103q-82 -46 -152 -46q-58 0 -58 59q0 9 2 19q-80 -78 -196 -78q-68 0 -68 61q0 28 16 64l178 399q28 63 95 98q59 31 125 31
q87 0 116 -49l20 45h105l-245 -549q-1 -3 -1 -5q0 -7 10 -7q31 0 76.5 32.5t60.5 64.5zM678 684h-83l-26 65l-82 -65h-83l117 102h130z" />
    <glyph glyph-name="Atilde" unicode="&#xc3;" horiz-adv-x="477" 
d="M369 185l131 293q8 20 8 44q0 66 -44 66q-23 0 -37 -31l-208 -467q-3 -6 -3 -11q0 -9 11 -9q13 0 35 11q79 39 107 104zM649 149q-25 -55 -111 -103q-82 -46 -152 -46q-58 0 -58 59q0 9 2 19q-80 -78 -196 -78q-68 0 -68 61q0 28 16 64l178 399q28 63 95 98q59 31 125 31
q87 0 116 -49l20 45h105l-245 -549q-1 -3 -1 -5q0 -7 10 -7q31 0 76.5 32.5t60.5 64.5zM716 791q-32 -73 -97 -73q-25 0 -53.5 19.5t-41.5 19.5q-23 0 -49 -37h-11q34 71 97 71q24 0 52.5 -19t42.5 -19q25 0 50 38h10z" />
    <glyph glyph-name="Adieresis" unicode="&#xc4;" horiz-adv-x="477" 
d="M369 185l131 293q8 20 8 44q0 66 -44 66q-23 0 -37 -31l-208 -467q-3 -6 -3 -11q0 -9 11 -9q13 0 35 11q79 39 107 104zM649 149q-25 -55 -111 -103q-82 -46 -152 -46q-58 0 -58 59q0 9 2 19q-80 -78 -196 -78q-68 0 -68 61q0 28 16 64l178 399q28 63 95 98q59 31 125 31
q87 0 116 -49l20 45h105l-245 -549q-1 -3 -1 -5q0 -7 10 -7q31 0 76.5 32.5t60.5 64.5zM566 738q-9 -20 -30.5 -32t-41.5 -12q-37 0 -37 28q0 7 4 16q9 20 30 32t42 12q36 0 36 -28q0 -8 -3 -16zM675 738q-8 -20 -29.5 -32t-41.5 -12q-37 0 -37 28q0 7 4 16q8 19 30 31.5
t42 12.5q36 0 36 -28q0 -8 -4 -16z" />
    <glyph glyph-name="Aring" unicode="&#xc5;" horiz-adv-x="477" 
d="M369 185l131 293q8 20 8 44q0 66 -44 66q-23 0 -37 -31l-208 -467q-3 -6 -3 -11q0 -9 11 -9q13 0 35 11q79 39 107 104zM649 149q-25 -55 -111 -103q-82 -46 -152 -46q-58 0 -58 59q0 9 2 19q-80 -78 -196 -78q-68 0 -68 61q0 28 16 64l178 399q28 63 95 98q59 31 125 31
q87 0 116 -49l20 45h105l-245 -549q-1 -3 -1 -5q0 -7 10 -7q31 0 76.5 32.5t60.5 64.5zM646 727q3 6 3 12q0 28 -48 28q-21 0 -44 -9q-27 -11 -36 -31q-3 -6 -3 -12q0 -28 48 -28q21 0 44 10q27 11 36 30zM682 727q-14 -30 -57 -48q-35 -15 -70 -15q-27 0 -48 11
q-26 12 -26 34q0 8 5 18q13 31 57 49q34 14 68 14q28 0 49 -10q26 -13 26 -34q0 -9 -4 -19z" />
    <glyph glyph-name="Ccedilla" unicode="&#xc7;" horiz-adv-x="360" 
d="M531 149q-25 -57 -114 -105q-82 -44 -141 -44h-76q-120 0 -120 79q0 36 24 90l147 331q65 146 188 146h124q63 0 63 -49q0 -12 -3 -27l-149 -54l24 54q1 2 1 4q0 13 -29 13q-33 0 -41 -18l-208 -466q-8 -20 -8 -28q0 -15 32 -15q107 0 194 57q51 35 66 68l27 -35z
M259 -82q-17 -40 -62 -65q-41 -23 -82 -23q-19 0 -44 3l9 21q16 -2 23 -2q23 0 48 15.5t35 38.5q3 7 3 14q0 22 -29 22q-4 0 -10 -1l92 87h30l-42 -39q37 -10 37 -41q0 -13 -8 -30z" />
    <glyph glyph-name="Egrave" unicode="&#xc8;" horiz-adv-x="364" 
d="M543 149q-25 -57 -114 -105q-82 -44 -141 -44h-76q-120 0 -120 79q0 36 24 90l19 43q23 52 79 92q51 37 109 50q-32 7 -54.5 29.5t-22.5 53.5q1 27 31 94q7 17 15 31q-17 30 -28 30h-173q-24 0 -24 28q0 29 27 29h243q35 0 54 -16q60 21 128 21q117 0 117 -66
q0 -8 -2 -18l-149 -54l24 54q1 2 1 4q0 15 -27 15q-35 0 -52 -39l-37 -82q-5 -11 -5 -21q0 -41 68 -80l-16 -36q-126 -40 -156 -108l-54 -120q-8 -19 -8 -28q0 -16 33 -16q67 0 142 30q92 37 118 96l27 -35v-1zM607 679h-82l-60 110h109z" />
    <glyph glyph-name="Eacute" unicode="&#xc9;" horiz-adv-x="364" 
d="M543 149q-25 -57 -114 -105q-82 -44 -141 -44h-76q-120 0 -120 79q0 36 24 90l19 43q23 52 79 92q51 37 109 50q-32 7 -54.5 29.5t-22.5 53.5q1 27 31 94q7 17 15 31q-17 30 -28 30h-173q-24 0 -24 28q0 29 27 29h243q35 0 54 -16q60 21 128 21q117 0 117 -66
q0 -8 -2 -18l-149 -54l24 54q1 2 1 4q0 15 -27 15q-35 0 -52 -39l-37 -82q-5 -11 -5 -21q0 -41 68 -80l-16 -36q-126 -40 -156 -108l-54 -120q-8 -19 -8 -28q0 -16 33 -16q67 0 142 30q92 37 118 96l27 -35v-1zM682 789l-157 -110h-82l130 110h109z" />
    <glyph glyph-name="Ecircumflex" unicode="&#xca;" horiz-adv-x="364" 
d="M543 149q-25 -57 -114 -105q-82 -44 -141 -44h-76q-120 0 -120 79q0 36 24 90l19 43q23 52 79 92q51 37 109 50q-32 7 -54.5 29.5t-22.5 53.5q1 27 31 94q7 17 15 31q-17 30 -28 30h-173q-24 0 -24 28q0 29 27 29h243q35 0 54 -16q60 21 128 21q117 0 117 -66
q0 -8 -2 -18l-149 -54l24 54q1 2 1 4q0 15 -27 15q-35 0 -52 -39l-37 -82q-5 -11 -5 -21q0 -41 68 -80l-16 -36q-126 -40 -156 -108l-54 -120q-8 -19 -8 -28q0 -16 33 -16q67 0 142 30q92 37 118 96l27 -35v-1zM678 684h-83l-26 65l-82 -65h-83l117 102h130z" />
    <glyph glyph-name="Edieresis" unicode="&#xcb;" horiz-adv-x="364" 
d="M543 149q-25 -57 -114 -105q-82 -44 -141 -44h-76q-120 0 -120 79q0 36 24 90l19 43q23 52 79 92q51 37 109 50q-32 7 -54.5 29.5t-22.5 53.5q1 27 31 94q7 17 15 31q-17 30 -28 30h-173q-24 0 -24 28q0 29 27 29h243q35 0 54 -16q60 21 128 21q117 0 117 -66
q0 -8 -2 -18l-149 -54l24 54q1 2 1 4q0 15 -27 15q-35 0 -52 -39l-37 -82q-5 -11 -5 -21q0 -41 68 -80l-16 -36q-126 -40 -156 -108l-54 -120q-8 -19 -8 -28q0 -16 33 -16q67 0 142 30q92 37 118 96l27 -35v-1zM566 738q-9 -20 -30.5 -32t-41.5 -12q-37 0 -37 28q0 7 4 16
q9 20 30 32t42 12q36 0 36 -28q0 -8 -3 -16zM675 738q-8 -20 -29.5 -32t-41.5 -12q-37 0 -37 28q0 7 4 16q8 19 30 31.5t42 12.5q36 0 36 -28q0 -8 -4 -16z" />
    <glyph glyph-name="Igrave" unicode="&#xcc;" horiz-adv-x="229" 
d="M209 0h-152l247 557q2 3 2 7q0 10 -11 19t-22 9h-173q-25 0 -25 28q0 29 27 29h244q120 0 120 -54q0 -17 -10 -38zM477 679h-82l-60 110h109z" />
    <glyph glyph-name="Iacute" unicode="&#xcd;" horiz-adv-x="229" 
d="M209 0h-152l247 557q2 3 2 7q0 10 -11 19t-22 9h-173q-25 0 -25 28q0 29 27 29h244q120 0 120 -54q0 -17 -10 -38zM582 789l-157 -110h-82l130 110h109z" />
    <glyph glyph-name="Icircumflex" unicode="&#xce;" horiz-adv-x="229" 
d="M209 0h-152l247 557q2 3 2 7q0 10 -11 19t-22 9h-173q-25 0 -25 28q0 29 27 29h244q120 0 120 -54q0 -17 -10 -38zM558 684h-83l-26 65l-82 -65h-83l117 102h130z" />
    <glyph glyph-name="Idieresis" unicode="&#xcf;" horiz-adv-x="229" 
d="M209 0h-152l247 557q2 3 2 7q0 10 -11 19t-22 9h-173q-25 0 -25 28q0 29 27 29h244q120 0 120 -54q0 -17 -10 -38zM436 738q-9 -20 -30.5 -32t-41.5 -12q-37 0 -37 28q0 7 4 16q9 20 30 32t42 12q36 0 36 -28q0 -8 -3 -16zM545 738q-8 -20 -29.5 -32t-41.5 -12
q-37 0 -37 28q0 7 4 16q8 19 30 31.5t42 12.5q36 0 36 -28q0 -8 -4 -16z" />
    <glyph glyph-name="Eth" unicode="&#xd0;" horiz-adv-x="541" 
d="M425 185l158 355q5 11 5 20q0 33 -40 33q-49 0 -73 -53l-200 -450q-3 -6 -3 -11q0 -9 11 -9q13 0 37 12q77 40 105 103zM561 165q-39 -87 -145 -131q-82 -34 -179 -34h-154l247 557q2 3 2 7q0 10 -11.5 19t-21.5 9h-173q-25 0 -25 28q0 29 27 29h243q93 0 114 -29
q41 32 122 32q48 0 86 -15q47 -19 47 -56q0 -13 -7 -29zM407 287h-244l33 73h243z" />
    <glyph glyph-name="Ntilde" unicode="&#xd1;" horiz-adv-x="495" 
d="M670 149q-25 -56 -111 -103q-82 -46 -152 -46q-27 0 -47.5 17t-20.5 42q0 13 6 26l210 472q5 10 5 18q0 13 -14 13q-32 0 -77 -40q-41 -36 -56 -70l-213 -478h-152l248 557q1 3 1 7q0 10 -11 19t-22 9h-173q-24 0 -24 28q0 29 27 29h243q99 0 117 -35q71 40 139 40
q39 0 74 -18q39 -21 39 -54q0 -12 -5 -25l-204 -457q-1 -3 -1 -5q0 -7 10 -7q31 0 77 32.5t60 64.5zM726 791q-32 -73 -97 -73q-25 0 -53.5 19.5t-41.5 19.5q-23 0 -49 -37h-11q34 71 97 71q24 0 52.5 -19t42.5 -19q25 0 50 38h10z" />
    <glyph glyph-name="Ograve" unicode="&#xd2;" horiz-adv-x="477" 
d="M350 142l150 336q8 20 8 44q0 66 -44 66q-23 0 -37 -31l-185 -415q-4 -9 -4 -17q0 -35 43 -35q46 0 69 52zM622 565q6 12 6 26q0 19 -13 19q-21 0 -21 -20q0 -10 7 -18t16 -8q2 0 5 1zM802 552q-35 -50 -151 -62l-163 -365q-56 -125 -254 -125q-163 0 -163 79q0 20 11 46
l178 399q29 64 95 98q56 29 124 29q42 0 80 -12q32 23 72 23q60 0 60 -50q0 -25 -18 -55q16 -5 28 -5q33 0 71 28q4 3 9 3q8 0 16 -7t8 -15q0 -5 -3 -9zM617 679h-82l-60 110h109z" />
    <glyph glyph-name="Oacute" unicode="&#xd3;" horiz-adv-x="477" 
d="M350 142l150 336q8 20 8 44q0 66 -44 66q-23 0 -37 -31l-185 -415q-4 -9 -4 -17q0 -35 43 -35q46 0 69 52zM622 565q6 12 6 26q0 19 -13 19q-21 0 -21 -20q0 -10 7 -18t16 -8q2 0 5 1zM802 552q-35 -50 -151 -62l-163 -365q-56 -125 -254 -125q-163 0 -163 79q0 20 11 46
l178 399q29 64 95 98q56 29 124 29q42 0 80 -12q32 23 72 23q60 0 60 -50q0 -25 -18 -55q16 -5 28 -5q33 0 71 28q4 3 9 3q8 0 16 -7t8 -15q0 -5 -3 -9zM692 789l-157 -110h-82l130 110h109z" />
    <glyph glyph-name="Ocircumflex" unicode="&#xd4;" horiz-adv-x="477" 
d="M350 142l150 336q8 20 8 44q0 66 -44 66q-23 0 -37 -31l-185 -415q-4 -9 -4 -17q0 -35 43 -35q46 0 69 52zM622 565q6 12 6 26q0 19 -13 19q-21 0 -21 -20q0 -10 7 -18t16 -8q2 0 5 1zM802 552q-35 -50 -151 -62l-163 -365q-56 -125 -254 -125q-163 0 -163 79q0 20 11 46
l178 399q29 64 95 98q56 29 124 29q42 0 80 -12q32 23 72 23q60 0 60 -50q0 -25 -18 -55q16 -5 28 -5q33 0 71 28q4 3 9 3q8 0 16 -7t8 -15q0 -5 -3 -9zM678 684h-83l-26 65l-82 -65h-83l117 102h130z" />
    <glyph glyph-name="Otilde" unicode="&#xd5;" horiz-adv-x="477" 
d="M350 142l150 336q8 20 8 44q0 66 -44 66q-23 0 -37 -31l-185 -415q-4 -9 -4 -17q0 -35 43 -35q46 0 69 52zM622 565q6 12 6 26q0 19 -13 19q-21 0 -21 -20q0 -10 7 -18t16 -8q2 0 5 1zM802 552q-35 -50 -151 -62l-163 -365q-56 -125 -254 -125q-163 0 -163 79q0 20 11 46
l178 399q29 64 95 98q56 29 124 29q42 0 80 -12q32 23 72 23q60 0 60 -50q0 -25 -18 -55q16 -5 28 -5q33 0 71 28q4 3 9 3q8 0 16 -7t8 -15q0 -5 -3 -9zM706 791q-32 -73 -97 -73q-25 0 -53.5 19.5t-41.5 19.5q-23 0 -49 -37h-11q34 71 97 71q24 0 52.5 -19t42.5 -19
q25 0 50 38h10z" />
    <glyph glyph-name="Odieresis" unicode="&#xd6;" horiz-adv-x="477" 
d="M350 142l150 336q8 20 8 44q0 66 -44 66q-23 0 -37 -31l-185 -415q-4 -9 -4 -17q0 -35 43 -35q46 0 69 52zM622 565q6 12 6 26q0 19 -13 19q-21 0 -21 -20q0 -10 7 -18t16 -8q2 0 5 1zM802 552q-35 -50 -151 -62l-163 -365q-56 -125 -254 -125q-163 0 -163 79q0 20 11 46
l178 399q29 64 95 98q56 29 124 29q42 0 80 -12q32 23 72 23q60 0 60 -50q0 -25 -18 -55q16 -5 28 -5q33 0 71 28q4 3 9 3q8 0 16 -7t8 -15q0 -5 -3 -9zM566 738q-9 -20 -30.5 -32t-41.5 -12q-37 0 -37 28q0 7 4 16q9 20 30 32t42 12q36 0 36 -28q0 -8 -3 -16zM675 738
q-8 -20 -29.5 -32t-41.5 -12q-37 0 -37 28q0 7 4 16q8 19 30 31.5t42 12.5q36 0 36 -28q0 -8 -4 -16z" />
    <glyph glyph-name="Oslash" unicode="&#xd8;" horiz-adv-x="477" 
d="M363 142l149 336q9 20 9 44q0 66 -45 66q-23 0 -37 -31l-184 -415q-4 -9 -4 -17q0 -35 42 -35q47 0 70 52zM635 565q5 12 5 26q0 19 -13 19q-21 0 -21 -20q0 -10 7 -18t16 -8q3 0 6 1zM815 552q-35 -50 -151 -62l-164 -365q-55 -125 -253 -125q-163 0 -163 79q0 20 11 46
l178 399q28 64 94 98q57 29 124 29q43 0 80 -12q32 23 73 23q60 0 60 -50q0 -25 -19 -55q17 -5 29 -5q33 0 71 28q3 3 8 3q9 0 17 -7t8 -15q0 -5 -3 -9zM653 554l-455 -501h-89l455 501h89z" />
    <glyph glyph-name="Ugrave" unicode="&#xd9;" horiz-adv-x="495" 
d="M670 149q-25 -56 -111 -103q-82 -46 -152 -46q-58 0 -58 59q0 9 2 19q-80 -78 -196 -78q-68 0 -68 61q0 28 16 64l193 432q1 3 1 7q0 10 -11 19t-22 9h-173q-24 0 -24 28q0 29 27 29h243q120 0 120 -54q0 -17 -9 -38l-208 -467q-3 -6 -3 -11q0 -9 11 -9q12 0 33 10
q80 39 109 105l207 464h145l-245 -549q-1 -3 -1 -5q0 -7 10 -7q31 0 77 32.5t60 64.5zM647 679h-82l-60 110h109z" />
    <glyph glyph-name="Uacute" unicode="&#xda;" horiz-adv-x="495" 
d="M670 149q-25 -56 -111 -103q-82 -46 -152 -46q-58 0 -58 59q0 9 2 19q-80 -78 -196 -78q-68 0 -68 61q0 28 16 64l193 432q1 3 1 7q0 10 -11 19t-22 9h-173q-24 0 -24 28q0 29 27 29h243q120 0 120 -54q0 -17 -9 -38l-208 -467q-3 -6 -3 -11q0 -9 11 -9q12 0 33 10
q80 39 109 105l207 464h145l-245 -549q-1 -3 -1 -5q0 -7 10 -7q31 0 77 32.5t60 64.5zM702 789l-157 -110h-82l130 110h109z" />
    <glyph glyph-name="Ucircumflex" unicode="&#xdb;" horiz-adv-x="495" 
d="M670 149q-25 -56 -111 -103q-82 -46 -152 -46q-58 0 -58 59q0 9 2 19q-80 -78 -196 -78q-68 0 -68 61q0 28 16 64l193 432q1 3 1 7q0 10 -11 19t-22 9h-173q-24 0 -24 28q0 29 27 29h243q120 0 120 -54q0 -17 -9 -38l-208 -467q-3 -6 -3 -11q0 -9 11 -9q12 0 33 10
q80 39 109 105l207 464h145l-245 -549q-1 -3 -1 -5q0 -7 10 -7q31 0 77 32.5t60 64.5zM698 684h-83l-26 65l-82 -65h-83l117 102h130z" />
    <glyph glyph-name="Udieresis" unicode="&#xdc;" horiz-adv-x="495" 
d="M670 149q-25 -56 -111 -103q-82 -46 -152 -46q-58 0 -58 59q0 9 2 19q-80 -78 -196 -78q-68 0 -68 61q0 28 16 64l193 432q1 3 1 7q0 10 -11 19t-22 9h-173q-24 0 -24 28q0 29 27 29h243q120 0 120 -54q0 -17 -9 -38l-208 -467q-3 -6 -3 -11q0 -9 11 -9q12 0 33 10
q80 39 109 105l207 464h145l-245 -549q-1 -3 -1 -5q0 -7 10 -7q31 0 77 32.5t60 64.5zM586 738q-9 -20 -30.5 -32t-41.5 -12q-37 0 -37 28q0 7 4 16q9 20 30 32t42 12q36 0 36 -28q0 -8 -3 -16zM695 738q-8 -20 -29.5 -32t-41.5 -12q-37 0 -37 28q0 7 4 16q8 19 30 31.5
t42 12.5q36 0 36 -28q0 -8 -4 -16z" />
    <glyph glyph-name="Yacute" unicode="&#xdd;" horiz-adv-x="475" 
d="M274 -75q17 41 53 121q-40 -10 -74 -86l-16 -37q-1 -2 -1 -4q0 -10 15 -10q16 0 23 16zM435 -54q-24 -54 -77 -84q-48 -28 -104 -28q-37 0 -67 14q-36 17 -36 47q0 11 6 24l18 41q58 130 195 182l7 14q-97 -58 -179 -58q-67 0 -67 60q0 28 16 64l149 335q1 3 1 7
q0 10 -11 19t-22 9h-173q-24 0 -24 28q0 29 27 29h243q120 0 120 -54q0 -17 -9 -38l-165 -369q-2 -7 -2 -11q0 -9 11 -9q27 0 74.5 36.5t59.5 63.5l170 381h152zM732 789l-157 -110h-82l130 110h109z" />
    <glyph glyph-name="Thorn" unicode="&#xde;" 
 />
    <glyph glyph-name="germandbls" unicode="&#xdf;" horiz-adv-x="364" 
d="M516 468l33 72q4 11 4 20q0 33 -40 33q-49 0 -72 -53l-78 -173q130 50 153 101zM526 165q-56 -127 -241 -158l47 107q31 26 48 52q7 12 27 57q7 16 7 31q0 47 -67 77l-147 -331h-152l246 552q45 102 223 102q189 0 189 -71q0 -14 -7 -31l-23 -51q-24 -54 -78 -94.5
t-112 -52.5q73 -21 73 -90q0 -25 -12 -52z" />
    <glyph glyph-name="agrave" unicode="&#xe0;" horiz-adv-x="391" 
d="M246 98l87 196q2 4 2 6q0 12 -17 12q-22 0 -30 -19l-85 -190q-7 -16 -7 -29q0 -14 12 -14q21 0 38 38zM563 150q-26 -57 -112 -104q-82 -46 -152 -46q-32 0 -37 30q-36 -32 -81 -32q-106 0 -106 72q0 38 27 99l14 31q31 70 81 116q60 55 126 55q49 0 75 -33l9 20h92
l-44 -99l-61 -138q-4 -9 -4 -16q0 -13 15 -13q30 0 73.5 32t57.5 61zM503 379h-82l-60 110h109z" />
    <glyph glyph-name="aacute" unicode="&#xe1;" horiz-adv-x="391" 
d="M246 98l87 196q2 4 2 6q0 12 -17 12q-22 0 -30 -19l-85 -190q-7 -16 -7 -29q0 -14 12 -14q21 0 38 38zM563 150q-26 -57 -112 -104q-82 -46 -152 -46q-32 0 -37 30q-36 -32 -81 -32q-106 0 -106 72q0 38 27 99l14 31q31 70 81 116q60 55 126 55q49 0 75 -33l9 20h92
l-44 -99l-61 -138q-4 -9 -4 -16q0 -13 15 -13q30 0 73.5 32t57.5 61zM588 489l-157 -110h-82l130 110h109z" />
    <glyph glyph-name="acircumflex" unicode="&#xe2;" horiz-adv-x="391" 
d="M246 98l87 196q2 4 2 6q0 12 -17 12q-22 0 -30 -19l-85 -190q-7 -16 -7 -29q0 -14 12 -14q21 0 38 38zM563 150q-26 -57 -112 -104q-82 -46 -152 -46q-32 0 -37 30q-36 -32 -81 -32q-106 0 -106 72q0 38 27 99l14 31q31 70 81 116q60 55 126 55q49 0 75 -33l9 20h92
l-44 -99l-61 -138q-4 -9 -4 -16q0 -13 15 -13q30 0 73.5 32t57.5 61zM514 384h-83l-26 65l-82 -65h-83l117 102h130z" />
    <glyph glyph-name="atilde" unicode="&#xe3;" horiz-adv-x="391" 
d="M246 98l87 196q2 4 2 6q0 12 -17 12q-22 0 -30 -19l-85 -190q-7 -16 -7 -29q0 -14 12 -14q21 0 38 38zM563 150q-26 -57 -112 -104q-82 -46 -152 -46q-32 0 -37 30q-36 -32 -81 -32q-106 0 -106 72q0 38 27 99l14 31q31 70 81 116q60 55 126 55q49 0 75 -33l9 20h92
l-44 -99l-61 -138q-4 -9 -4 -16q0 -13 15 -13q30 0 73.5 32t57.5 61zM542 491q-32 -73 -97 -73q-25 0 -53.5 19.5t-41.5 19.5q-23 0 -49 -37h-11q34 71 97 71q24 0 52.5 -19t42.5 -19q25 0 50 38h10z" />
    <glyph glyph-name="adieresis" unicode="&#xe4;" horiz-adv-x="391" 
d="M246 98l87 196q2 4 2 6q0 12 -17 12q-22 0 -30 -19l-85 -190q-7 -16 -7 -29q0 -14 12 -14q21 0 38 38zM563 150q-26 -57 -112 -104q-82 -46 -152 -46q-32 0 -37 30q-36 -32 -81 -32q-106 0 -106 72q0 38 27 99l14 31q31 70 81 116q60 55 126 55q49 0 75 -33l9 20h92
l-44 -99l-61 -138q-4 -9 -4 -16q0 -13 15 -13q30 0 73.5 32t57.5 61zM412 438q-9 -20 -30.5 -32t-41.5 -12q-37 0 -37 28q0 7 4 16q9 20 30 32t42 12q36 0 36 -28q0 -8 -3 -16zM521 438q-8 -20 -29.5 -32t-41.5 -12q-37 0 -37 28q0 7 4 16q8 19 30 31.5t42 12.5q36 0 36 -28
q0 -8 -4 -16z" />
    <glyph glyph-name="aring" unicode="&#xe5;" horiz-adv-x="391" 
d="M246 98l87 196q2 4 2 6q0 12 -17 12q-22 0 -30 -19l-85 -190q-7 -16 -7 -29q0 -14 12 -14q21 0 38 38zM563 150q-26 -57 -112 -104q-82 -46 -152 -46q-32 0 -37 30q-36 -32 -81 -32q-106 0 -106 72q0 38 27 99l14 31q31 70 81 116q60 55 126 55q49 0 75 -33l9 20h92
l-44 -99l-61 -138q-4 -9 -4 -16q0 -13 15 -13q30 0 73.5 32t57.5 61zM462 427q3 6 3 12q0 28 -48 28q-21 0 -44 -9q-27 -11 -36 -31q-3 -6 -3 -12q0 -28 48 -28q21 0 44 10q27 11 36 30zM498 427q-14 -30 -57 -48q-35 -15 -70 -15q-27 0 -48 11q-26 12 -26 34q0 8 5 18
q13 31 57 49q34 14 68 14q28 0 49 -10q26 -13 26 -34q0 -9 -4 -19z" />
    <glyph glyph-name="ae" unicode="&#xe6;" horiz-adv-x="506" 
d="M231 98l95 214h-23q-21 0 -29 -19l-85 -190q-7 -16 -7 -29q0 -14 11 -14q21 0 38 38zM466 212l37 82q1 4 1 6q0 12 -17 12q-21 0 -29 -19l-37 -81h45zM683 149q-25 -57 -114 -105q-82 -44 -141 -44h-144q-32 0 -36 30q-38 -32 -81 -32q-107 0 -107 72q0 38 27 99l14 31
q32 70 82 116q59 55 125 55h259q64 0 64 -49q0 -31 -35 -109q-25 -57 -99 -57h-100l-24 -53q-7 -16 -7 -28q0 -15 12 -15h29q97 0 183 57q51 35 67 68l26 -35v-1z" />
    <glyph glyph-name="ccedilla" unicode="&#xe7;" horiz-adv-x="313" 
d="M511 149q-25 -57 -114 -105q-82 -44 -141 -44h-76q-108 0 -108 71q0 37 28 98l32 72q24 54 65 90q46 40 99 40h99q64 0 64 -50q0 -11 -3 -26l-149 -54l24 53q1 4 1 6q0 12 -17 12q-21 0 -29 -19l-85 -190q-7 -16 -7 -28q0 -15 12 -15h29q96 0 183 57q51 34 67 68l26 -35
v-1zM219 -82q-17 -40 -62 -65q-41 -23 -82 -23q-19 0 -44 3l9 21q16 -2 23 -2q23 0 48 15.5t35 38.5q3 7 3 14q0 22 -29 22q-4 0 -10 -1l92 87h30l-42 -39q37 -10 37 -41q0 -13 -8 -30z" />
    <glyph glyph-name="egrave" unicode="&#xe8;" horiz-adv-x="320" 
d="M285 212l37 82q1 4 1 6q0 12 -17 12q-21 0 -29 -19l-37 -81h45zM502 149q-25 -57 -114 -105q-82 -44 -141 -44h-76q-108 0 -108 71q0 37 28 98l32 72q24 54 65 90q46 40 99 40h99q64 0 64 -49q0 -30 -35 -109q-25 -57 -99 -57h-100l-24 -53q-7 -16 -7 -28q0 -15 12 -15
h29q97 0 183 57q51 35 67 68l26 -35v-1zM433 379h-82l-60 110h109z" />
    <glyph glyph-name="eacute" unicode="&#xe9;" horiz-adv-x="320" 
d="M285 212l37 82q1 4 1 6q0 12 -17 12q-21 0 -29 -19l-37 -81h45zM502 149q-25 -57 -114 -105q-82 -44 -141 -44h-76q-108 0 -108 71q0 37 28 98l32 72q24 54 65 90q46 40 99 40h99q64 0 64 -49q0 -30 -35 -109q-25 -57 -99 -57h-100l-24 -53q-7 -16 -7 -28q0 -15 12 -15
h29q97 0 183 57q51 35 67 68l26 -35v-1zM518 489l-157 -110h-82l130 110h109z" />
    <glyph glyph-name="ecircumflex" unicode="&#xea;" horiz-adv-x="320" 
d="M285 212l37 82q1 4 1 6q0 12 -17 12q-21 0 -29 -19l-37 -81h45zM502 149q-25 -57 -114 -105q-82 -44 -141 -44h-76q-108 0 -108 71q0 37 28 98l32 72q24 54 65 90q46 40 99 40h99q64 0 64 -49q0 -30 -35 -109q-25 -57 -99 -57h-100l-24 -53q-7 -16 -7 -28q0 -15 12 -15
h29q97 0 183 57q51 35 67 68l26 -35v-1zM484 384h-83l-26 65l-82 -65h-83l117 102h130z" />
    <glyph glyph-name="edieresis" unicode="&#xeb;" horiz-adv-x="320" 
d="M285 212l37 82q1 4 1 6q0 12 -17 12q-21 0 -29 -19l-37 -81h45zM502 149q-25 -57 -114 -105q-82 -44 -141 -44h-76q-108 0 -108 71q0 37 28 98l32 72q24 54 65 90q46 40 99 40h99q64 0 64 -49q0 -30 -35 -109q-25 -57 -99 -57h-100l-24 -53q-7 -16 -7 -28q0 -15 12 -15
h29q97 0 183 57q51 35 67 68l26 -35v-1zM372 438q-9 -20 -30.5 -32t-41.5 -12q-37 0 -37 28q0 7 4 16q9 20 30 32t42 12q36 0 36 -28q0 -8 -3 -16zM481 438q-8 -20 -29.5 -32t-41.5 -12q-37 0 -37 28q0 7 4 16q8 19 30 31.5t42 12.5q36 0 36 -28q0 -8 -4 -16z" />
    <glyph glyph-name="igrave" unicode="&#xec;" horiz-adv-x="218" 
d="M391 149q-25 -55 -112 -103q-81 -46 -152 -46q-26 0 -43 19.5t-17 45.5q0 17 7 33l131 293l111 -61l-93 -209q-5 -10 -5 -16q0 -13 16 -13q29 0 73 32t57 61l27 -35v-1zM373 379h-82l-60 110h109z" />
    <glyph glyph-name="iacute" unicode="&#xed;" horiz-adv-x="218" 
d="M391 149q-25 -55 -112 -103q-81 -46 -152 -46q-26 0 -43 19.5t-17 45.5q0 17 7 33l131 293l111 -61l-93 -209q-5 -10 -5 -16q0 -13 16 -13q29 0 73 32t57 61l27 -35v-1zM438 489l-157 -110h-82l130 110h109z" />
    <glyph glyph-name="icircumflex" unicode="&#xee;" horiz-adv-x="218" 
d="M391 149q-25 -55 -112 -103q-81 -46 -152 -46q-26 0 -43 19.5t-17 45.5q0 17 7 33l131 293l111 -61l-93 -209q-5 -10 -5 -16q0 -13 16 -13q29 0 73 32t57 61l27 -35v-1zM414 384h-83l-26 65l-82 -65h-83l117 102h130z" />
    <glyph glyph-name="idieresis" unicode="&#xef;" horiz-adv-x="218" 
d="M391 149q-25 -55 -112 -103q-81 -46 -152 -46q-26 0 -43 19.5t-17 45.5q0 17 7 33l131 293l111 -61l-93 -209q-5 -10 -5 -16q0 -13 16 -13q29 0 73 32t57 61l27 -35v-1zM302 438q-9 -20 -30.5 -32t-41.5 -12q-37 0 -37 28q0 7 4 16q9 20 30 32t42 12q36 0 36 -28
q0 -8 -3 -16zM411 438q-8 -20 -29.5 -32t-41.5 -12q-37 0 -37 28q0 7 4 16q8 19 30 31.5t42 12.5q36 0 36 -28q0 -8 -4 -16z" />
    <glyph glyph-name="eth" unicode="&#xf0;" 
 />
    <glyph glyph-name="ntilde" unicode="&#xf1;" horiz-adv-x="399" 
d="M574 149q-24 -55 -111 -103q-82 -46 -152 -46q-14 0 -30 8q-33 15 -33 49q0 18 10 41l88 196q2 6 2 10q0 11 -14 11q-22 0 -32 -22l-130 -293h-146l174 391l92 -49q41 42 113 42q70 0 70 -73q0 -36 -18 -77l-51 -113q-4 -10 -4 -16q0 -13 15 -13q30 0 73.5 32t57.5 61
l27 -35zM532 491q-32 -73 -97 -73q-25 0 -53.5 19.5t-41.5 19.5q-23 0 -49 -37h-11q34 71 97 71q24 0 52.5 -19t42.5 -19q25 0 50 38h10z" />
    <glyph glyph-name="ograve" unicode="&#xf2;" horiz-adv-x="353" 
d="M243 85l78 176q-18 5 -18 34q0 10 3 16q-16 -9 -23 -26l-89 -200q-4 -9 -4 -17q0 -15 14 -15q24 0 39 32zM407 301q6 13 6 27q0 19 -13 19q-21 0 -21 -20q0 -10 7 -18.5t16 -8.5q3 0 5 1zM587 288q-49 -51 -150 -61l-24 -55q-77 -172 -176 -172h-113q-59 0 -59 55
q0 35 24 90l40 88q24 54 67 93q49 45 101 45h41q32 28 78 28q60 0 60 -50q0 -25 -18 -56q17 -4 28 -4q24 0 71 28zM443 379h-82l-60 110h109z" />
    <glyph glyph-name="oacute" unicode="&#xf3;" horiz-adv-x="353" 
d="M243 85l78 176q-18 5 -18 34q0 10 3 16q-16 -9 -23 -26l-89 -200q-4 -9 -4 -17q0 -15 14 -15q24 0 39 32zM407 301q6 13 6 27q0 19 -13 19q-21 0 -21 -20q0 -10 7 -18.5t16 -8.5q3 0 5 1zM587 288q-49 -51 -150 -61l-24 -55q-77 -172 -176 -172h-113q-59 0 -59 55
q0 35 24 90l40 88q24 54 67 93q49 45 101 45h41q32 28 78 28q60 0 60 -50q0 -25 -18 -56q17 -4 28 -4q24 0 71 28zM508 489l-157 -110h-82l130 110h109z" />
    <glyph glyph-name="ocircumflex" unicode="&#xf4;" horiz-adv-x="353" 
d="M243 85l78 176q-18 5 -18 34q0 10 3 16q-16 -9 -23 -26l-89 -200q-4 -9 -4 -17q0 -15 14 -15q24 0 39 32zM407 301q6 13 6 27q0 19 -13 19q-21 0 -21 -20q0 -10 7 -18.5t16 -8.5q3 0 5 1zM587 288q-49 -51 -150 -61l-24 -55q-77 -172 -176 -172h-113q-59 0 -59 55
q0 35 24 90l40 88q24 54 67 93q49 45 101 45h41q32 28 78 28q60 0 60 -50q0 -25 -18 -56q17 -4 28 -4q24 0 71 28zM504 384h-83l-26 65l-82 -65h-83l117 102h130z" />
    <glyph glyph-name="otilde" unicode="&#xf5;" horiz-adv-x="353" 
d="M243 85l78 176q-18 5 -18 34q0 10 3 16q-16 -9 -23 -26l-89 -200q-4 -9 -4 -17q0 -15 14 -15q24 0 39 32zM407 301q6 13 6 27q0 19 -13 19q-21 0 -21 -20q0 -10 7 -18.5t16 -8.5q3 0 5 1zM587 288q-49 -51 -150 -61l-24 -55q-77 -172 -176 -172h-113q-59 0 -59 55
q0 35 24 90l40 88q24 54 67 93q49 45 101 45h41q32 28 78 28q60 0 60 -50q0 -25 -18 -56q17 -4 28 -4q24 0 71 28zM522 491q-32 -73 -97 -73q-25 0 -53.5 19.5t-41.5 19.5q-23 0 -49 -37h-11q34 71 97 71q24 0 52.5 -19t42.5 -19q25 0 50 38h10z" />
    <glyph glyph-name="odieresis" unicode="&#xf6;" horiz-adv-x="353" 
d="M243 85l78 176q-18 5 -18 34q0 10 3 16q-16 -9 -23 -26l-89 -200q-4 -9 -4 -17q0 -15 14 -15q24 0 39 32zM407 301q6 13 6 27q0 19 -13 19q-21 0 -21 -20q0 -10 7 -18.5t16 -8.5q3 0 5 1zM587 288q-49 -51 -150 -61l-24 -55q-77 -172 -176 -172h-113q-59 0 -59 55
q0 35 24 90l40 88q24 54 67 93q49 45 101 45h41q32 28 78 28q60 0 60 -50q0 -25 -18 -56q17 -4 28 -4q24 0 71 28zM382 438q-9 -20 -30.5 -32t-41.5 -12q-37 0 -37 28q0 7 4 16q9 20 30 32t42 12q36 0 36 -28q0 -8 -3 -16zM491 438q-8 -20 -29.5 -32t-41.5 -12q-37 0 -37 28
q0 7 4 16q8 19 30 31.5t42 12.5q36 0 36 -28q0 -8 -4 -16z" />
    <glyph glyph-name="oslash" unicode="&#xf8;" horiz-adv-x="353" 
d="M257 85l78 176q-17 5 -17 34q0 10 3 16q-17 -9 -24 -26l-89 -200q-4 -9 -4 -17q0 -15 14 -15q25 0 39 32zM422 301q5 13 5 27q0 19 -13 19q-21 0 -21 -20q0 -10 7 -18.5t16 -8.5q3 0 6 1zM601 288q-49 -51 -150 -61l-24 -55q-76 -172 -175 -172h-114q-59 0 -59 55
q0 35 25 90l39 88q24 54 67 93q49 45 101 45h41q32 28 78 28q60 0 60 -50q0 -25 -18 -56q17 -4 28 -4q24 0 71 28zM417 293l-268 -269h-57l269 269h56z" />
    <glyph glyph-name="ugrave" unicode="&#xf9;" horiz-adv-x="380" 
d="M562 149q-25 -55 -111 -103q-82 -46 -152 -46q-32 0 -37 30q-37 -32 -81 -32q-107 0 -107 72q0 37 28 99l84 189h131l-114 -255q-7 -16 -7 -29q0 -14 12 -14q21 0 37 38l130 293l111 -61l-92 -209q-4 -9 -4 -16q0 -13 15 -13q29 0 73 32t57 61l27 -35v-1zM443 379h-82
l-60 110h109z" />
    <glyph glyph-name="uacute" unicode="&#xfa;" horiz-adv-x="380" 
d="M562 149q-25 -55 -111 -103q-82 -46 -152 -46q-32 0 -37 30q-37 -32 -81 -32q-107 0 -107 72q0 37 28 99l84 189h131l-114 -255q-7 -16 -7 -29q0 -14 12 -14q21 0 37 38l130 293l111 -61l-92 -209q-4 -9 -4 -16q0 -13 15 -13q29 0 73 32t57 61l27 -35v-1zM508 489
l-157 -110h-82l130 110h109z" />
    <glyph glyph-name="ucircumflex" unicode="&#xfb;" horiz-adv-x="380" 
d="M562 149q-25 -55 -111 -103q-82 -46 -152 -46q-32 0 -37 30q-37 -32 -81 -32q-107 0 -107 72q0 37 28 99l84 189h131l-114 -255q-7 -16 -7 -29q0 -14 12 -14q21 0 37 38l130 293l111 -61l-92 -209q-4 -9 -4 -16q0 -13 15 -13q29 0 73 32t57 61l27 -35v-1zM494 384h-83
l-26 65l-82 -65h-83l117 102h130z" />
    <glyph glyph-name="udieresis" unicode="&#xfc;" horiz-adv-x="380" 
d="M562 149q-25 -55 -111 -103q-82 -46 -152 -46q-32 0 -37 30q-37 -32 -81 -32q-107 0 -107 72q0 37 28 99l84 189h131l-114 -255q-7 -16 -7 -29q0 -14 12 -14q21 0 37 38l130 293l111 -61l-92 -209q-4 -9 -4 -16q0 -13 15 -13q29 0 73 32t57 61l27 -35v-1zM382 438
q-9 -20 -30.5 -32t-41.5 -12q-37 0 -37 28q0 7 4 16q9 20 30 32t42 12q36 0 36 -28q0 -8 -3 -16zM491 438q-8 -20 -29.5 -32t-41.5 -12q-37 0 -37 28q0 7 4 16q8 19 30 31.5t42 12.5q36 0 36 -28q0 -8 -4 -16z" />
    <glyph glyph-name="yacute" unicode="&#xfd;" horiz-adv-x="385" 
d="M151 -77q14 34 45 101q-35 -24 -52 -46q-12 -16 -29 -55q-1 -2 -1 -4q0 -11 15 -11t22 15zM551 149q-22 -50 -96 -94q-64 -39 -123 -50l-26 -59q-24 -55 -81 -86q-51 -28 -108 -28q-41 0 -70 17.5t-29 50.5q0 18 9 38q32 72 121 94q-69 13 -69 73q0 37 26 95l85 191
l103 -61l-83 -187q-7 -15 -7 -26q0 -13 11 -13q23 0 42 42l116 261l104 -77l-93 -209q-5 -10 -5 -16q0 -13 16 -13q29 0 73 32t57 61l27 -35v-1zM508 489l-157 -110h-82l130 110h109z" />
    <glyph glyph-name="thorn" unicode="&#xfe;" 
 />
    <glyph glyph-name="ydieresis" unicode="&#xff;" horiz-adv-x="370" 
d="M151 -77q14 34 45 101q-35 -24 -52 -46q-12 -16 -29 -55q-1 -2 -1 -4q0 -11 15 -11t22 15zM551 149q-22 -50 -96 -94q-64 -39 -123 -50l-26 -59q-24 -55 -81 -86q-51 -28 -108 -28q-41 0 -70 17.5t-29 50.5q0 18 9 38q32 72 121 94q-69 13 -69 73q0 37 26 95l85 191
l103 -61l-83 -187q-7 -15 -7 -26q0 -13 11 -13q23 0 42 42l116 261l104 -77l-93 -209q-5 -10 -5 -16q0 -13 16 -13q29 0 73 32t57 61l27 -35v-1zM382 438q-9 -20 -30.5 -32t-41.5 -12q-37 0 -37 28q0 7 4 16q9 20 30 32t42 12q36 0 36 -28q0 -8 -3 -16zM491 438
q-8 -20 -29.5 -32t-41.5 -12q-37 0 -37 28q0 7 4 16q8 19 30 31.5t42 12.5q36 0 36 -28q0 -8 -4 -16z" />
    <glyph glyph-name="Amacron" unicode="&#x100;" 
 />
    <glyph glyph-name="amacron" unicode="&#x101;" 
 />
    <glyph glyph-name="Abreve" unicode="&#x102;" 
 />
    <glyph glyph-name="abreve" unicode="&#x103;" 
 />
    <glyph glyph-name="Aogonek" unicode="&#x104;" 
 />
    <glyph glyph-name="aogonek" unicode="&#x105;" 
 />
    <glyph glyph-name="Cacute" unicode="&#x106;" 
 />
    <glyph glyph-name="cacute" unicode="&#x107;" 
 />
    <glyph glyph-name="Ccircumflex" unicode="&#x108;" 
 />
    <glyph glyph-name="ccircumflex" unicode="&#x109;" 
 />
    <glyph glyph-name="Cdot" unicode="&#x10a;" 
 />
    <glyph glyph-name="cdot" unicode="&#x10b;" 
 />
    <glyph glyph-name="Ccaron" unicode="&#x10c;" 
 />
    <glyph glyph-name="ccaron" unicode="&#x10d;" 
 />
    <glyph glyph-name="Dcaron" unicode="&#x10e;" 
 />
    <glyph glyph-name="dcaron" unicode="&#x10f;" 
 />
    <glyph glyph-name="Dslash" unicode="&#x110;" 
 />
    <glyph glyph-name="dcroat" unicode="&#x111;" 
 />
    <glyph glyph-name="Emacron" unicode="&#x112;" 
 />
    <glyph glyph-name="emacron" unicode="&#x113;" 
 />
    <glyph glyph-name="Ebreve" unicode="&#x114;" 
 />
    <glyph glyph-name="ebreve" unicode="&#x115;" 
 />
    <glyph glyph-name="Edot" unicode="&#x116;" 
 />
    <glyph glyph-name="edot" unicode="&#x117;" 
 />
    <glyph glyph-name="Eogonek" unicode="&#x118;" 
 />
    <glyph glyph-name="eogonek" unicode="&#x119;" 
 />
    <glyph glyph-name="Ecaron" unicode="&#x11a;" 
 />
    <glyph glyph-name="ecaron" unicode="&#x11b;" 
 />
    <glyph glyph-name="Gcircumflex" unicode="&#x11c;" 
 />
    <glyph glyph-name="gcircumflex" unicode="&#x11d;" 
 />
    <glyph glyph-name="Gbreve" unicode="&#x11e;" 
 />
    <glyph glyph-name="gbreve" unicode="&#x11f;" 
 />
    <glyph glyph-name="Gdot" unicode="&#x120;" 
 />
    <glyph glyph-name="gdot" unicode="&#x121;" 
 />
    <glyph glyph-name="Gcedilla" unicode="&#x122;" 
 />
    <glyph glyph-name="gcedilla" unicode="&#x123;" 
 />
    <glyph glyph-name="Hcircumflex" unicode="&#x124;" 
 />
    <glyph glyph-name="hcircumflex" unicode="&#x125;" 
 />
    <glyph glyph-name="Hbar" unicode="&#x126;" 
 />
    <glyph glyph-name="hbar" unicode="&#x127;" 
 />
    <glyph glyph-name="Itilde" unicode="&#x128;" 
 />
    <glyph glyph-name="itilde" unicode="&#x129;" 
 />
    <glyph glyph-name="Imacron" unicode="&#x12a;" 
 />
    <glyph glyph-name="imacron" unicode="&#x12b;" 
 />
    <glyph glyph-name="Ibreve" unicode="&#x12c;" 
 />
    <glyph glyph-name="ibreve" unicode="&#x12d;" 
 />
    <glyph glyph-name="Iogonek" unicode="&#x12e;" 
 />
    <glyph glyph-name="iogonek" unicode="&#x12f;" 
 />
    <glyph glyph-name="Idotaccent" unicode="&#x130;" 
 />
    <glyph glyph-name="dotlessi" unicode="&#x131;" horiz-adv-x="218" 
d="M391 149q-25 -55 -112 -103q-81 -46 -152 -46q-26 0 -43 19.5t-17 45.5q0 17 7 33l131 293l111 -61l-93 -209q-5 -10 -5 -16q0 -13 16 -13q29 0 73 32t57 61l27 -35v-1z" />
    <glyph glyph-name="IJ" unicode="&#x132;" 
 />
    <glyph glyph-name="ij" unicode="&#x133;" 
 />
    <glyph glyph-name="Jcircumflex" unicode="&#x134;" 
 />
    <glyph glyph-name="jcircumflex" unicode="&#x135;" 
 />
    <glyph glyph-name="Kcedilla" unicode="&#x136;" 
 />
    <glyph glyph-name="kcedilla" unicode="&#x137;" 
 />
    <glyph glyph-name="kgreenlandic" unicode="&#x138;" 
 />
    <glyph glyph-name="Lacute" unicode="&#x139;" 
 />
    <glyph glyph-name="lacute" unicode="&#x13a;" 
 />
    <glyph glyph-name="Lcedilla" unicode="&#x13b;" 
 />
    <glyph glyph-name="lcedilla" unicode="&#x13c;" 
 />
    <glyph glyph-name="Lcaron" unicode="&#x13d;" 
 />
    <glyph glyph-name="lcaron" unicode="&#x13e;" 
 />
    <glyph glyph-name="Ldot" unicode="&#x13f;" 
 />
    <glyph glyph-name="ldot" unicode="&#x140;" 
 />
    <glyph glyph-name="Lslash" unicode="&#x141;" 
 />
    <glyph glyph-name="lslash" unicode="&#x142;" 
 />
    <glyph glyph-name="Nacute" unicode="&#x143;" 
 />
    <glyph glyph-name="nacute" unicode="&#x144;" 
 />
    <glyph glyph-name="Ncedilla" unicode="&#x145;" 
 />
    <glyph glyph-name="ncedilla" unicode="&#x146;" 
 />
    <glyph glyph-name="Ncaron" unicode="&#x147;" 
 />
    <glyph glyph-name="ncaron" unicode="&#x148;" 
 />
    <glyph glyph-name="napostrophe" unicode="&#x149;" 
 />
    <glyph glyph-name="Eng" unicode="&#x14a;" 
 />
    <glyph glyph-name="eng" unicode="&#x14b;" 
 />
    <glyph glyph-name="Omacron" unicode="&#x14c;" 
 />
    <glyph glyph-name="omacron" unicode="&#x14d;" 
 />
    <glyph glyph-name="Obreve" unicode="&#x14e;" 
 />
    <glyph glyph-name="obreve" unicode="&#x14f;" 
 />
    <glyph glyph-name="Odblacute" unicode="&#x150;" 
 />
    <glyph glyph-name="odblacute" unicode="&#x151;" 
 />
    <glyph glyph-name="OE" unicode="&#x152;" horiz-adv-x="920" 
 />
    <glyph glyph-name="oe" unicode="&#x153;" horiz-adv-x="506" 
d="M238 85l88 198q4 9 4 17q0 15 -14 15q-25 0 -42 -40l-85 -190q-4 -9 -4 -16q0 -16 14 -16q25 0 39 32zM472 212l37 82q1 4 1 6q0 12 -17 12q-22 0 -30 -19l-36 -81h45zM689 149q-26 -57 -114 -105q-82 -44 -141 -44h-77q-46 0 -72 12q-25 -12 -52 -12h-114q-58 0 -58 55
q0 36 24 90l39 88q24 54 67 93q50 45 101 45h281q64 0 64 -49q0 -31 -35 -109q-25 -57 -99 -57h-101l-24 -53q-7 -16 -7 -28q0 -15 13 -15h28q97 0 184 57q51 34 66 68l27 -35v-1z" />
    <glyph glyph-name="Racute" unicode="&#x154;" 
 />
    <glyph glyph-name="racute" unicode="&#x155;" 
 />
    <glyph glyph-name="Rcedilla" unicode="&#x156;" 
 />
    <glyph glyph-name="rcedilla" unicode="&#x157;" 
 />
    <glyph glyph-name="Rcaron" unicode="&#x158;" 
 />
    <glyph glyph-name="rcaron" unicode="&#x159;" 
 />
    <glyph glyph-name="Sacute" unicode="&#x15a;" 
 />
    <glyph glyph-name="sacute" unicode="&#x15b;" 
 />
    <glyph glyph-name="Scircumflex" unicode="&#x15c;" 
 />
    <glyph glyph-name="scircumflex" unicode="&#x15d;" 
 />
    <glyph glyph-name="Scedilla" unicode="&#x15e;" 
 />
    <glyph glyph-name="scedilla" unicode="&#x15f;" 
 />
    <glyph glyph-name="Scaron" unicode="&#x160;" 
 />
    <glyph glyph-name="scaron" unicode="&#x161;" 
 />
    <glyph glyph-name="Tcedilla" unicode="&#x162;" 
 />
    <glyph glyph-name="tcedilla" unicode="&#x163;" 
 />
    <glyph glyph-name="Tcaron" unicode="&#x164;" 
 />
    <glyph glyph-name="tcaron" unicode="&#x165;" 
 />
    <glyph glyph-name="Tbar" unicode="&#x166;" 
 />
    <glyph glyph-name="tbar" unicode="&#x167;" 
 />
    <glyph glyph-name="Utilde" unicode="&#x168;" 
 />
    <glyph glyph-name="utilde" unicode="&#x169;" 
 />
    <glyph glyph-name="Umacron" unicode="&#x16a;" 
 />
    <glyph glyph-name="umacron" unicode="&#x16b;" 
 />
    <glyph glyph-name="Ubreve" unicode="&#x16c;" 
 />
    <glyph glyph-name="ubreve" unicode="&#x16d;" 
 />
    <glyph glyph-name="Uring" unicode="&#x16e;" 
 />
    <glyph glyph-name="uring" unicode="&#x16f;" 
 />
    <glyph glyph-name="Udblacute" unicode="&#x170;" 
 />
    <glyph glyph-name="udblacute" unicode="&#x171;" 
 />
    <glyph glyph-name="Uogonek" unicode="&#x172;" 
 />
    <glyph glyph-name="uogonek" unicode="&#x173;" 
 />
    <glyph glyph-name="Wcircumflex" unicode="&#x174;" 
 />
    <glyph glyph-name="wcircumflex" unicode="&#x175;" 
 />
    <glyph glyph-name="Ycircumflex" unicode="&#x176;" 
 />
    <glyph glyph-name="ycircumflex" unicode="&#x177;" 
 />
    <glyph glyph-name="Ydieresis" unicode="&#x178;" horiz-adv-x="495" 
d="M207 -75q17 41 53 121q-40 -10 -74 -86l-16 -37q-1 -2 -1 -4q0 -10 15 -10q16 0 23 16zM368 -54q-24 -54 -77 -84q-48 -28 -104 -28q-37 0 -67 14q-36 17 -36 47q0 11 6 24l18 41q58 130 195 182l7 14q-97 -58 -179 -58q-67 0 -67 60q0 28 16 64l149 335q1 3 1 7
q0 10 -11 19t-22 9h-173q-24 0 -24 28q0 29 27 29h243q120 0 120 -54q0 -17 -9 -38l-165 -369q-2 -7 -2 -11q0 -9 11 -9q27 0 74.5 36.5t59.5 63.5l170 381h152zM516 738q-9 -20 -30.5 -32t-41.5 -12q-37 0 -37 28q0 7 4 16q9 20 30 32t42 12q36 0 36 -28q0 -8 -3 -16z
M625 738q-8 -20 -29.5 -32t-41.5 -12q-37 0 -37 28q0 7 4 16q8 19 30 31.5t42 12.5q36 0 36 -28q0 -8 -4 -16z" />
    <glyph glyph-name="Zacute" unicode="&#x179;" 
 />
    <glyph glyph-name="zacute" unicode="&#x17a;" 
 />
    <glyph glyph-name="Zdot" unicode="&#x17b;" 
 />
    <glyph glyph-name="zdot" unicode="&#x17c;" 
 />
    <glyph glyph-name="Zcaron" unicode="&#x17d;" 
 />
    <glyph glyph-name="zcaron" unicode="&#x17e;" 
 />
    <glyph glyph-name="longs" unicode="&#x17f;" 
 />
    <glyph glyph-name="glyph341" 
 />
    <glyph glyph-name="florin" unicode="&#x192;" 
 />
    <glyph glyph-name="Aringacute" unicode="&#x1fa;" 
 />
    <glyph glyph-name="aringacute" unicode="&#x1fb;" 
 />
    <glyph glyph-name="AEacute" unicode="&#x1fc;" 
 />
    <glyph glyph-name="aeacute" unicode="&#x1fd;" 
 />
    <glyph glyph-name="Oslashacute" unicode="&#x1fe;" 
 />
    <glyph glyph-name="oslashacute" unicode="&#x1ff;" 
 />
    <glyph glyph-name="circumflex" unicode="&#x2c6;" horiz-adv-x="589" 
d="M728 684h-83l-26 65l-82 -65h-83l117 102h130z" />
    <glyph glyph-name="caron" unicode="&#x2c7;" 
 />
    <glyph glyph-name="macron" unicode="&#x2c9;" 
 />
    <glyph glyph-name="breve" unicode="&#x2d8;" 
 />
    <glyph glyph-name="dotaccent" unicode="&#x2d9;" 
 />
    <glyph glyph-name="ring" unicode="&#x2da;" horiz-adv-x="571" 
d="M676 727q3 6 3 12q0 28 -48 28q-21 0 -44 -9q-27 -11 -36 -31q-3 -6 -3 -12q0 -28 48 -28q21 0 44 10q27 11 36 30zM712 727q-14 -30 -57 -48q-35 -15 -70 -15q-27 0 -48 11q-26 12 -26 34q0 8 5 18q13 31 57 49q34 14 68 14q28 0 49 -10q26 -13 26 -34q0 -9 -4 -19z" />
    <glyph glyph-name="ogonek" unicode="&#x2db;" 
 />
    <glyph glyph-name="tilde" unicode="&#x2dc;" horiz-adv-x="557" 
d="M756 791q-32 -73 -97 -73q-25 0 -53.5 19.5t-41.5 19.5q-23 0 -49 -37h-11q34 71 97 71q24 0 52.5 -19t42.5 -19q25 0 50 38h10z" />
    <glyph glyph-name="hungarumlaut" unicode="&#x2dd;" 
 />
    <glyph glyph-name="glyph358" 
 />
    <glyph glyph-name="tonos" unicode="&#x384;" 
 />
    <glyph glyph-name="dieresistonos" unicode="&#x385;" 
 />
    <glyph glyph-name="Alphatonos" unicode="&#x386;" 
 />
    <glyph glyph-name="anoteleia" unicode="&#x387;" 
 />
    <glyph glyph-name="Epsilontonos" unicode="&#x388;" 
 />
    <glyph glyph-name="Etatonos" unicode="&#x389;" 
 />
    <glyph glyph-name="Iotatonos" unicode="&#x38a;" 
 />
    <glyph glyph-name="Omicrontonos" unicode="&#x38c;" 
 />
    <glyph glyph-name="Upsilontonos" unicode="&#x38e;" 
 />
    <glyph glyph-name="Omegatonos" unicode="&#x38f;" 
 />
    <glyph glyph-name="iotadieresistonos" unicode="&#x390;" 
 />
    <glyph glyph-name="Alpha" unicode="&#x391;" 
 />
    <glyph glyph-name="Beta" unicode="&#x392;" 
 />
    <glyph glyph-name="Gamma" unicode="&#x393;" 
 />
    <glyph glyph-name="Delta" unicode="&#x394;" 
 />
    <glyph glyph-name="Delta" unicode="&#x2206;" 
 />
    <glyph glyph-name="Epsilon" unicode="&#x395;" 
 />
    <glyph glyph-name="Zeta" unicode="&#x396;" 
 />
    <glyph glyph-name="Eta" unicode="&#x397;" 
 />
    <glyph glyph-name="Theta" unicode="&#x398;" 
 />
    <glyph glyph-name="Theta" unicode="&#x472;" 
 />
    <glyph glyph-name="Iota" unicode="&#x399;" 
 />
    <glyph glyph-name="Kappa" unicode="&#x39a;" 
 />
    <glyph glyph-name="Lambda" unicode="&#x39b;" 
 />
    <glyph glyph-name="Mu" unicode="&#x39c;" 
 />
    <glyph glyph-name="Nu" unicode="&#x39d;" 
 />
    <glyph glyph-name="Xi" unicode="&#x39e;" 
 />
    <glyph glyph-name="Omicron" unicode="&#x39f;" 
 />
    <glyph glyph-name="Pi" unicode="&#x3a0;" 
 />
    <glyph glyph-name="Rho" unicode="&#x3a1;" 
 />
    <glyph glyph-name="Sigma" unicode="&#x3a3;" 
 />
    <glyph glyph-name="Tau" unicode="&#x3a4;" 
 />
    <glyph glyph-name="Upsilon" unicode="&#x3a5;" 
 />
    <glyph glyph-name="Phi" unicode="&#x3a6;" 
 />
    <glyph glyph-name="Chi" unicode="&#x3a7;" 
 />
    <glyph glyph-name="Psi" unicode="&#x3a8;" 
 />
    <glyph glyph-name="Psi" unicode="&#x470;" 
 />
    <glyph glyph-name="Omega" unicode="&#x3a9;" 
 />
    <glyph glyph-name="Omega" unicode="&#x2126;" 
 />
    <glyph glyph-name="Iotadieresis" unicode="&#x3aa;" 
 />
    <glyph glyph-name="Upsilondieresis" unicode="&#x3ab;" 
 />
    <glyph glyph-name="alphatonos" unicode="&#x3ac;" 
 />
    <glyph glyph-name="epsilontonos" unicode="&#x3ad;" 
 />
    <glyph glyph-name="etatonos" unicode="&#x3ae;" 
 />
    <glyph glyph-name="iotatonos" unicode="&#x3af;" 
 />
    <glyph glyph-name="upsilondieresistonos" unicode="&#x3b0;" 
 />
    <glyph glyph-name="alpha" unicode="&#x3b1;" 
 />
    <glyph glyph-name="beta" unicode="&#x3b2;" 
 />
    <glyph glyph-name="gamma" unicode="&#x3b3;" 
 />
    <glyph glyph-name="delta" unicode="&#x3b4;" 
 />
    <glyph glyph-name="epsilon" unicode="&#x3b5;" 
 />
    <glyph glyph-name="zeta" unicode="&#x3b6;" 
 />
    <glyph glyph-name="eta" unicode="&#x3b7;" 
 />
    <glyph glyph-name="theta" unicode="&#x3b8;" 
 />
    <glyph glyph-name="theta" unicode="&#x473;" 
 />
    <glyph glyph-name="iota" unicode="&#x3b9;" 
 />
    <glyph glyph-name="kappa" unicode="&#x3ba;" 
 />
    <glyph glyph-name="lambda" unicode="&#x3bb;" 
 />
    <glyph glyph-name="mu" unicode="&#x3bc;" 
 />
    <glyph glyph-name="nu" unicode="&#x3bd;" 
 />
    <glyph glyph-name="xi" unicode="&#x3be;" 
 />
    <glyph glyph-name="omicron" unicode="&#x3bf;" 
 />
    <glyph glyph-name="pi" unicode="&#x3c0;" 
 />
    <glyph glyph-name="rho" unicode="&#x3c1;" 
 />
    <glyph glyph-name="sigma1" unicode="&#x3c2;" 
 />
    <glyph glyph-name="sigma" unicode="&#x3c3;" 
 />
    <glyph glyph-name="tau" unicode="&#x3c4;" 
 />
    <glyph glyph-name="upsilon" unicode="&#x3c5;" 
 />
    <glyph glyph-name="phi" unicode="&#x3c6;" 
 />
    <glyph glyph-name="chi" unicode="&#x3c7;" 
 />
    <glyph glyph-name="psi" unicode="&#x3c8;" 
 />
    <glyph glyph-name="psi" unicode="&#x471;" 
 />
    <glyph glyph-name="omega" unicode="&#x3c9;" 
 />
    <glyph glyph-name="iotadieresis" unicode="&#x3ca;" 
 />
    <glyph glyph-name="upsilondieresis" unicode="&#x3cb;" 
 />
    <glyph glyph-name="omicrontonos" unicode="&#x3cc;" 
 />
    <glyph glyph-name="upsilontonos" unicode="&#x3cd;" 
 />
    <glyph glyph-name="omegatonos" unicode="&#x3ce;" 
 />
    <glyph glyph-name="glyph431" 
 />
    <glyph glyph-name="afii10023" unicode="&#x401;" 
 />
    <glyph glyph-name="afii10051" unicode="&#x402;" 
 />
    <glyph glyph-name="afii10052" unicode="&#x403;" 
 />
    <glyph glyph-name="afii10053" unicode="&#x404;" 
 />
    <glyph glyph-name="afii10054" unicode="&#x405;" 
 />
    <glyph glyph-name="afii10055" unicode="&#x406;" 
 />
    <glyph glyph-name="afii10056" unicode="&#x407;" 
 />
    <glyph glyph-name="afii10057" unicode="&#x408;" 
 />
    <glyph glyph-name="afii10058" unicode="&#x409;" 
 />
    <glyph glyph-name="afii10059" unicode="&#x40a;" 
 />
    <glyph glyph-name="afii10060" unicode="&#x40b;" 
 />
    <glyph glyph-name="afii10061" unicode="&#x40c;" 
 />
    <glyph glyph-name="afii10062" unicode="&#x40e;" 
 />
    <glyph glyph-name="afii10145" unicode="&#x40f;" 
 />
    <glyph glyph-name="afii10017" unicode="&#x410;" 
 />
    <glyph glyph-name="afii10018" unicode="&#x411;" 
 />
    <glyph glyph-name="afii10019" unicode="&#x412;" 
 />
    <glyph glyph-name="afii10020" unicode="&#x413;" 
 />
    <glyph glyph-name="afii10021" unicode="&#x414;" 
 />
    <glyph glyph-name="afii10022" unicode="&#x415;" 
 />
    <glyph glyph-name="afii10024" unicode="&#x416;" 
 />
    <glyph glyph-name="afii10025" unicode="&#x417;" 
 />
    <glyph glyph-name="afii10026" unicode="&#x418;" 
 />
    <glyph glyph-name="afii10027" unicode="&#x419;" 
 />
    <glyph glyph-name="afii10028" unicode="&#x41a;" 
 />
    <glyph glyph-name="afii10029" unicode="&#x41b;" 
 />
    <glyph glyph-name="afii10030" unicode="&#x41c;" 
 />
    <glyph glyph-name="afii10031" unicode="&#x41d;" 
 />
    <glyph glyph-name="afii10032" unicode="&#x41e;" 
 />
    <glyph glyph-name="afii10033" unicode="&#x41f;" 
 />
    <glyph glyph-name="afii10034" unicode="&#x420;" 
 />
    <glyph glyph-name="afii10035" unicode="&#x421;" 
 />
    <glyph glyph-name="afii10036" unicode="&#x422;" 
 />
    <glyph glyph-name="afii10037" unicode="&#x423;" 
 />
    <glyph glyph-name="afii10038" unicode="&#x424;" 
 />
    <glyph glyph-name="afii10039" unicode="&#x425;" 
 />
    <glyph glyph-name="afii10040" unicode="&#x426;" 
 />
    <glyph glyph-name="afii10041" unicode="&#x427;" 
 />
    <glyph glyph-name="afii10042" unicode="&#x428;" 
 />
    <glyph glyph-name="afii10043" unicode="&#x429;" 
 />
    <glyph glyph-name="afii10044" unicode="&#x42a;" 
 />
    <glyph glyph-name="afii10045" unicode="&#x42b;" 
 />
    <glyph glyph-name="afii10046" unicode="&#x42c;" 
 />
    <glyph glyph-name="afii10047" unicode="&#x42d;" 
 />
    <glyph glyph-name="afii10048" unicode="&#x42e;" 
 />
    <glyph glyph-name="afii10049" unicode="&#x42f;" 
 />
    <glyph glyph-name="afii10065" unicode="&#x430;" 
 />
    <glyph glyph-name="afii10066" unicode="&#x431;" 
 />
    <glyph glyph-name="afii10067" unicode="&#x432;" 
 />
    <glyph glyph-name="afii10068" unicode="&#x433;" 
 />
    <glyph glyph-name="afii10069" unicode="&#x434;" 
 />
    <glyph glyph-name="afii10070" unicode="&#x435;" 
 />
    <glyph glyph-name="afii10072" unicode="&#x436;" 
 />
    <glyph glyph-name="afii10073" unicode="&#x437;" 
 />
    <glyph glyph-name="afii10074" unicode="&#x438;" 
 />
    <glyph glyph-name="afii10075" unicode="&#x439;" 
 />
    <glyph glyph-name="afii10076" unicode="&#x43a;" 
 />
    <glyph glyph-name="afii10077" unicode="&#x43b;" 
 />
    <glyph glyph-name="afii10078" unicode="&#x43c;" 
 />
    <glyph glyph-name="afii10079" unicode="&#x43d;" 
 />
    <glyph glyph-name="afii10080" unicode="&#x43e;" 
 />
    <glyph glyph-name="afii10081" unicode="&#x43f;" 
 />
    <glyph glyph-name="afii10082" unicode="&#x440;" 
 />
    <glyph glyph-name="afii10083" unicode="&#x441;" 
 />
    <glyph glyph-name="afii10084" unicode="&#x442;" 
 />
    <glyph glyph-name="afii10085" unicode="&#x443;" 
 />
    <glyph glyph-name="afii10086" unicode="&#x444;" 
 />
    <glyph glyph-name="afii10087" unicode="&#x445;" 
 />
    <glyph glyph-name="afii10088" unicode="&#x446;" 
 />
    <glyph glyph-name="afii10089" unicode="&#x447;" 
 />
    <glyph glyph-name="afii10090" unicode="&#x448;" 
 />
    <glyph glyph-name="afii10091" unicode="&#x449;" 
 />
    <glyph glyph-name="afii10092" unicode="&#x44a;" 
 />
    <glyph glyph-name="afii10093" unicode="&#x44b;" 
 />
    <glyph glyph-name="afii10094" unicode="&#x44c;" 
 />
    <glyph glyph-name="afii10095" unicode="&#x44d;" 
 />
    <glyph glyph-name="afii10096" unicode="&#x44e;" 
 />
    <glyph glyph-name="afii10097" unicode="&#x44f;" 
 />
    <glyph glyph-name="afii10071" unicode="&#x451;" 
 />
    <glyph glyph-name="afii10099" unicode="&#x452;" 
 />
    <glyph glyph-name="afii10100" unicode="&#x453;" 
 />
    <glyph glyph-name="afii10101" unicode="&#x454;" 
 />
    <glyph glyph-name="afii10102" unicode="&#x455;" 
 />
    <glyph glyph-name="afii10103" unicode="&#x456;" 
 />
    <glyph glyph-name="afii10104" unicode="&#x457;" 
 />
    <glyph glyph-name="afii10105" unicode="&#x458;" 
 />
    <glyph glyph-name="afii10106" unicode="&#x459;" 
 />
    <glyph glyph-name="afii10107" unicode="&#x45a;" 
 />
    <glyph glyph-name="afii10108" unicode="&#x45b;" 
 />
    <glyph glyph-name="afii10109" unicode="&#x45c;" 
 />
    <glyph glyph-name="afii10110" unicode="&#x45e;" 
 />
    <glyph glyph-name="afii10193" unicode="&#x45f;" 
 />
    <glyph glyph-name="afii10050" unicode="&#x490;" 
 />
    <glyph glyph-name="afii10098" unicode="&#x491;" 
 />
    <glyph glyph-name="glyph526" 
 />
    <glyph glyph-name="Wgrave" unicode="&#x1e80;" 
 />
    <glyph glyph-name="wgrave" unicode="&#x1e81;" 
 />
    <glyph glyph-name="Wacute" unicode="&#x1e82;" 
 />
    <glyph glyph-name="wacute" unicode="&#x1e83;" 
 />
    <glyph glyph-name="Wdieresis" unicode="&#x1e84;" 
 />
    <glyph glyph-name="wdieresis" unicode="&#x1e85;" 
 />
    <glyph glyph-name="Ygrave" unicode="&#x1ef2;" 
 />
    <glyph glyph-name="ygrave" unicode="&#x1ef3;" 
 />
    <glyph glyph-name="glyph535" 
 />
    <glyph glyph-name="endash" unicode="&#x2013;" 
 />
    <glyph glyph-name="emdash" unicode="&#x2014;" 
 />
    <glyph glyph-name="afii00208" unicode="&#x2015;" 
 />
    <glyph glyph-name="underscoredbl" unicode="&#x2017;" 
 />
    <glyph glyph-name="quoteleft" unicode="&#x2018;" horiz-adv-x="183" 
d="M295 608q0 -46 60 -66l26 19q-29 7 -29 29q0 5 2 10q7 -2 16 -2q28 0 57 16.5t40 41.5q4 9 4 18q0 18 -18 28t-41 10q-59 0 -94 -38q-23 -27 -23 -66z" />
    <glyph glyph-name="quoteright" unicode="&#x2019;" horiz-adv-x="186" 
d="M465 656q-38 -86 -150 -114l-9 19q48 9 62 39q-9 -2 -17 -2q-51 0 -51 39q0 9 5 19q12 27 47 43q30 13 58 13q23 0 41 -10t18 -28q0 -9 -4 -18z" />
    <glyph glyph-name="quotesinglbase" unicode="&#x201a;" 
 />
    <glyph glyph-name="quotereversed" unicode="&#x201b;" 
 />
    <glyph glyph-name="quotedblleft" unicode="&#x201c;" horiz-adv-x="376" 
d="M305 608q0 -46 60 -66l26 19q-29 7 -29 29q0 5 2 10q7 -2 16 -2q28 0 57 16.5t40 41.5q4 9 4 18q0 18 -18 28t-41 10q-59 0 -94 -38q-23 -27 -23 -66zM475 608q0 -46 60 -66l26 19q-29 7 -29 29q0 5 2 10q7 -2 16 -2q28 0 57 16.5t40 41.5q4 9 4 18q0 18 -18 28t-41 10
q-59 0 -94 -38q-23 -27 -23 -66z" />
    <glyph glyph-name="quotedblright" unicode="&#x201d;" horiz-adv-x="367" 
d="M475 656q-38 -86 -150 -114l-9 19q48 9 62 39q-9 -2 -17 -2q-51 0 -51 39q0 9 5 19q12 27 47 43q30 13 58 13q23 0 41 -10t18 -28q0 -9 -4 -18zM645 656q-38 -86 -150 -114l-9 19q48 9 62 39q-9 -2 -17 -2q-51 0 -51 39q0 9 5 19q12 27 47 43q30 13 58 13q23 0 41 -10
t18 -28q0 -9 -4 -18z" />
    <glyph glyph-name="quotedblbase" unicode="&#x201e;" 
 />
    <glyph glyph-name="glyph547" 
 />
    <glyph glyph-name="dagger" unicode="&#x2020;" 
 />
    <glyph glyph-name="daggerdbl" unicode="&#x2021;" 
 />
    <glyph glyph-name="bullet" unicode="&#x2022;" horiz-adv-x="479" 
d="M407 362q-8 0 -8 2l5 11h-2q-2 -1 -3 -4l-7 -17h8q3 0 4 3zM424 366h-1h-1h-5q8 3 11 9h-5h-3q-3 0 -5 -6l-7 -15h4q2 6 4 6q0 -1 2 -2q3 2 6 8zM654 446l-160 -102l-28 -149l-98 78l-167 -82l100 150l-75 98l160 15l120 143l-1 -141z" />
    <glyph glyph-name="ellipsis" unicode="&#x2026;" horiz-adv-x="560" 
d="M228 56q-12 -26 -47 -42q-29 -14 -58 -14q-23 0 -41 10t-18 29q0 8 4 17q12 27 47 43q30 13 58 13q23 0 41 -10t18 -28q0 -9 -4 -18zM394 56q-12 -26 -47 -42q-29 -14 -58 -14q-23 0 -41 10t-18 29q0 8 4 17q12 27 47 43q30 13 58 13q23 0 41 -10t18 -28q0 -9 -4 -18z
M560 56q-12 -26 -47 -42q-29 -14 -58 -14q-23 0 -41 10t-18 29q0 8 4 17q12 27 47 43q30 13 58 13q23 0 41 -10t18 -28q0 -9 -4 -18z" />
    </font>
</defs>
</svg>
