<svg width="162" height="25" xmlns="http://www.w3.org/2000/svg">
  <g fill="none" fill-rule="evenodd">
    <path d="M9.45 8L0 24.33h8.08l5.41-9.35zm28.54 5L35 17.89l3.84 6.62h6.19zm-6.65.89L23.3 0l-6.46 11.16-5.42 9.35L9 24.71h28.6l-2.42-4.2z" fill="#334840"/>
    <path d="M68.95 10.68a4.07 4.07 0 0 0 .39-1.63c0-.42-.1-.77-.28-1.06a.92.92 0 0 0-.83-.43c-.16 0-.3.02-.43.07s-.25.13-.37.25-.25.3-.37.5c-.13.22-.28.5-.44.86l-4.12 9.2a46.5 46.5 0 0 0-.82 1.95c-.16.42-.24.71-.24.87 0 .39.16.58.48.58.29 0 .6-.1.95-.31a7.59 7.59 0 0 0 2.44-2.66l3.64-8.19zm2.27 11.12a11.47 11.47 0 0 1-3.37 1.81c-.75.26-1.45.39-2.09.39-1.06 0-1.58-.56-1.58-1.68a3.2 3.2 0 0 1 .04-.53 7.53 7.53 0 0 1-2.42 1.65c-.9.37-1.88.56-2.95.56-1.23 0-1.85-.58-1.85-1.75 0-.13.02-.27.05-.43.03-.16.1-.39.19-.68.1-.28.24-.67.44-1.15l.8-1.87 3.82-8.57a6.06 6.06 0 0 1 2.1-2.7A6 6 0 0 1 67.78 6c.86 0 1.53.17 2.01.5.48.34.8.7.94 1.08l.65-1.44h3.57L68.23 21.2a.45.45 0 0 0-.02.15c0 .1.09.16.26.16.29 0 .62-.08 1-.25a7.54 7.54 0 0 0 2.12-1.51l.3-.27a8.07 8.07 0 0 0-.67 2.33zm4.57-3.22a2.7 2.7 0 0 0 1.8-.92 2.9 2.9 0 0 0 .72-1.96c0-.21-.15-.32-.45-.32a.8.8 0 0 0-.52.18c-.15.12-.32.38-.5.76l-1.05 2.26zm6.2 2.69s-.6.5-.94.74A9.2 9.2 0 0 1 75.17 24c-.64 0-1.2-.02-1.7-.06-.48-.04-.9-.13-1.23-.28a1.7 1.7 0 0 1-.77-.6 1.9 1.9 0 0 1-.26-1.08c0-.65.25-1.55.74-2.68l.89-2c.29-.65.6-1.2.94-1.66a4.37 4.37 0 0 1 2.77-1.74c.6-.13 1.3-.2 2.12-.2.63 0 1.14.04 1.55.11a3 3 0 0 1 .95.3c.22.13.38.29.47.48.08.2.13.41.13.65 0 .4-.06.86-.18 1.37-.12.51-.37 1-.73 1.49-.26.33-.6.6-1.05.82-.44.22-.92.4-1.45.52a13.62 13.62 0 0 1-3.07.4c-.2.42-.34.78-.45 1.08-.1.3-.15.54-.15.73 0 .43.3.65.89.65a9.56 9.56 0 0 0 3.97-1l.67-.38 1.76.35zm9.55.63s-.67.48-1.05.7c-.7.4-1.42.74-2.18 1a6.3 6.3 0 0 1-2.1.4c-.58 0-1.01-.14-1.3-.43a1.62 1.62 0 0 1-.43-1.2c0-.21.04-.46.13-.76s.2-.6.34-.93a18.08 18.08 0 0 1 .95-1.98c.33-.63.55-1.07.64-1.34.1-.26.15-.43.15-.51 0-.11-.15-.23-.46-.36l-.5-.22a9.72 9.72 0 0 1-1.87 3.1c-.47.53-.88.97-1.24 1.32l-.64.58-1.76-.34.18-.27c.67-1.16 1.26-2.4 1.76-3.7.5-1.29.98-2.58 1.43-3.88l5.86 3.31c.24.15.41.3.51.46.1.16.16.31.16.45 0 .2-.07.45-.22.76-.14.31-.3.65-.49 1-.18.37-.35.73-.49 1.09-.14.36-.22.67-.22.92 0 .23.13.34.39.34.27 0 .59-.09.95-.25a6.91 6.91 0 0 0 2.05-1.47c.13-.13.34-.39.34-.39l-.89 2.6zm20.33-.05s-1 .7-1.55.99a10.45 10.45 0 0 1-4.74 1.16c-.48 0-.93-.08-1.34-.23a3.3 3.3 0 0 1-1.05-.62 2.86 2.86 0 0 1-.95-2.13l1.3-.86c.06.32.18.63.36.92.17.3.42.45.74.45.27 0 .53-.07.77-.22.24-.14.44-.33.61-.55a2.72 2.72 0 0 0 .54-1.58c0-.47-.05-.9-.14-1.3a3.7 3.7 0 0 0-.48-1.13c-1 .64-2.42.96-4.28.96-.54 1.4-1.07 2.5-1.58 3.34a7.1 7.1 0 0 1-1.6 1.9c-.55.43-1.14.71-1.76.85-.62.13-1.3.2-2.04.2-1.17 0-1.98-.17-2.45-.52-.46-.34-.7-.8-.7-1.4l.01-.18.89-2.6.81-1.76c.34-.72.68-1.32 1.04-1.82s.74-.9 1.13-1.19c.4-.3.8-.5 1.23-.63a5.18 5.18 0 0 1 2.31-.12c.58-.53 1.29-.8 2.14-.8.54 0 .94.12 1.2.34.25.22.38.54.38.96 0 .45-.14.98-.43 1.6l.42.1.35.03c.29 0 .68-.06 1.17-.18.5-.12.96-.3 1.37-.54a3.66 3.66 0 0 1 .16-2.04 3.7 3.7 0 0 1 1.63-1.97c.38-.2.79-.31 1.24-.31.41 0 .75.08 1 .25.26.17.39.48.39.95a1.96 1.96 0 0 1-.28 1.07c-.12.21-.29.46-.51.73-.23.27-.52.57-.9.91 1.3 1.63 1.95 2.9 1.95 3.8 0 .8-.2 1.51-.59 2.1a3.7 3.7 0 0 1-1.86 1.37 6.8 6.8 0 0 0 1.36-.37 9.61 9.61 0 0 0 2.8-1.68c.2-.18.54-.57.54-.56-.17.4-.57 1.44-.61 2.31zm-13.37-5.1a.82.82 0 0 1-.35-.42 1.81 1.81 0 0 1-.08-.92c-.18.08-.33.2-.44.35-.11.15-.24.4-.38.75l-2.21 5.04a1.2 1.2 0 0 0-.12.48c0 .3.14.46.4.46a1.13 1.13 0 0 0 .94-.7l2.24-5.04zm2.35-1.08a1.46 1.46 0 0 0 .19-.7.9.9 0 0 0-.08-.39.33.33 0 0 0-.3-.16c-.39 0-.58.19-.58.56 0 .46.26.7.77.7zm6.79-2.04c.34-.22.54-.41.62-.57.08-.16.12-.3.12-.44 0-.16-.07-.24-.21-.24-.39 0-.58.24-.58.72a4.43 4.43 0 0 0 .05.53zm11.23 2.4a.3.3 0 0 0 .05-.15v-.16a.37.37 0 0 0-.08-.23c-.06-.07-.17-.1-.33-.1a.79.79 0 0 0-.56.19 1.5 1.5 0 0 0-.37.6l-2.19 4.92c-.14.28-.21.56-.21.81 0 .26.1.39.33.39.37 0 .72-.36 1.06-1.06l2.3-5.2zm4.32 6a11 11 0 0 1-3.12 1.6c-.75.25-1.44.37-2.06.37a.92.92 0 0 1-.69-.25 1.2 1.2 0 0 1-.32-.66 3.8 3.8 0 0 1-1.14.67c-.42.16-1 .24-1.74.24-.66 0-1.2-.16-1.62-.5-.42-.32-.64-.82-.64-1.5 0-.4.1-.93.3-1.55a17.87 17.87 0 0 1 2.22-4.36c.43-.61.87-1.1 1.3-1.45a3.95 3.95 0 0 1 2.64-.94c.66 0 1.12.1 1.4.28.28.18.51.41.69.68l.24-.55h2.85l-2.52 5.64-.37.85c-.07.17-.1.32-.1.45 0 .24.13.36.4.36s.6-.09.96-.27a6.9 6.9 0 0 0 2.04-1.47c.29-.3.49-.57.6-.8l-.66 1.5c-.36.82-.66 1.39-.66 1.66zm7.2-.25a12.27 12.27 0 0 1-3.4 1.83c-.75.26-1.45.39-2.1.39-.5 0-.93-.14-1.25-.42-.33-.28-.5-.66-.5-1.14 0-.38.1-.78.32-1.2l3.57-8.02 3.03 1.66-2.55 5.74c-.08.19-.12.33-.12.43 0 .24.14.36.41.36.27 0 .6-.09.96-.27a6.9 6.9 0 0 0 2.52-2.07l-.56 1.25c-.22.48-.33.76-.33 1.46zm2.14-11.96c0 .3-.1.58-.3.82-.2.25-.45.46-.75.63a4.2 4.2 0 0 1-1.95.54c-.42 0-.79-.1-1.12-.28-.33-.18-.49-.43-.49-.75 0-.26.09-.51.26-.76.18-.25.41-.47.7-.66a3.8 3.8 0 0 1 2.04-.62c.42 0 .79.1 1.12.28.32.2.49.46.49.8zm8.16-.63a8 8 0 0 0 .25-.61.99.99 0 0 0 .06-.3c0-.16-.12-.24-.36-.24-.3 0-.52.14-.65.43l-3 6.63a2.8 2.8 0 0 0 1.17-.96c.4-.52.77-1.13 1.09-1.85l1.44-3.1zM138.87 22a10.03 10.03 0 0 1-5.79 2.01c-.82 0-1.47-.22-1.96-.66-.48-.44-.73-1-.73-1.67a3 3 0 0 1 .27-1.2l5.08-11.42a4.91 4.91 0 0 1 2-2.34c.83-.47 1.9-.71 3.21-.71.75 0 1.33.13 1.74.38.41.26.61.64.61 1.16 0 .17-.03.38-.1.6-.06.24-.18.58-.38 1.03l-1.41 3.12a9.2 9.2 0 0 1-5.35 5.01l-1.44 3.22c-.1.2-.15.36-.15.5 0 .2.15.34.45.45.3.1.58.15.87.15.39 0 .79-.08 1.2-.25a6.58 6.58 0 0 0 2.3-1.53c.18-.2.35-.38.49-.57-.05.1-.26.52-.48 1.04a4.6 4.6 0 0 0-.43 1.67zm22.29-2.19c-.2.46-.58.94-1.12 1.44-.53.5-1.15.95-1.84 1.36-.7.4-1.43.74-2.19 1a6.3 6.3 0 0 1-2.1.4c-.57 0-1-.14-1.3-.43a1.62 1.62 0 0 1-.43-1.2c0-.21.05-.46.14-.76.08-.3.2-.6.33-.93a18.08 18.08 0 0 1 .95-1.98 12 12 0 0 0 .65-1.34c.1-.26.14-.43.14-.51 0-.07-.03-.12-.1-.16-.08-.04-.2-.1-.35-.2l-.77-.46c-.3.63-.69 1.08-1.14 1.37-.46.29-1.05.43-1.77.43a7.83 7.83 0 0 1-1.27-.12c-.54 1.4-1.07 2.5-1.58 3.34a7.1 7.1 0 0 1-1.6 1.9c-.55.43-1.14.71-1.76.85-.63.13-1.3.2-2.04.2-1.17 0-1.99-.17-2.45-.52-.46-.34-.7-.8-.7-1.4 0-.3.06-.63.16-.98.1-.36.25-.74.44-1.16l1.1-2.4c.34-.72.7-1.32 1.05-1.82.36-.5.74-.9 1.13-1.19.4-.3.8-.5 1.22-.63a4.57 4.57 0 0 1 1.96-.18c.14 0 .26.02.36.06.58-.53 1.29-.8 2.14-.8.54 0 .94.12 1.2.34.25.22.38.54.38.96 0 .45-.14.98-.43 1.6a2.67 2.67 0 0 0 .43.06c.26 0 .5-.08.72-.23a3.6 3.6 0 0 0 1.12-1.39l.42-.88 4.9 2.95c.23.15.4.3.5.47.11.17.16.32.16.44 0 .2-.07.45-.21.76-.15.31-.31.65-.5 1-.18.37-.34.73-.49 1.09-.14.36-.21.67-.21.92 0 .23.13.34.38.34.27 0 .59-.09.95-.25a6.91 6.91 0 0 0 2.05-1.47c.29-.3.5-.57.63-.83l.74.94zm-15.34-3.05a.82.82 0 0 1-.34-.42 1.81 1.81 0 0 1-.08-.92c-.2.08-.35.2-.45.35-.1.15-.23.4-.37.75l-2.21 5.04a1.2 1.2 0 0 0-.12.48c0 .3.13.46.4.46a1.13 1.13 0 0 0 .94-.7l2.23-5.04zm2.36-1.08a1.46 1.46 0 0 0 .19-.7.78.78 0 0 0-.09-.39c-.05-.1-.15-.16-.3-.16-.38 0-.57.19-.57.56 0 .46.25.7.77.7z" fill="#FFF"/>
  </g>
</svg>
